<?xml version="1.0" encoding="UTF-8" standalone="no"?>
<svg
   xmlns:dc="http://purl.org/dc/elements/1.1/"
   xmlns:cc="http://creativecommons.org/ns#"
   xmlns:rdf="http://www.w3.org/1999/02/22-rdf-syntax-ns#"
   xmlns:svg="http://www.w3.org/2000/svg"
   xmlns="http://www.w3.org/2000/svg"
   xmlns:sodipodi="http://sodipodi.sourceforge.net/DTD/sodipodi-0.dtd"
   xmlns:inkscape="http://www.inkscape.org/namespaces/inkscape"
   width="255"
   height="255"
   viewBox="0 0 67.468747 67.468751"
   version="1.1"
   id="svg8">
  <defs
     id="defs2">
    <clipPath
       clipPathUnits="userSpaceOnUse"
       id="clipPath876">
      <rect
         style="fill:none;stroke:#ff00ff;stroke-width:1.42;stroke-linecap:round;stroke-linejoin:round;stroke-miterlimit:4;stroke-dasharray:none"
         id="rect878"
         width="59.366001"
         height="59.428001"
         x="38.55357"
         y="96.005951"
         ry="18.441597" />
    </clipPath>
    <filter
       inkscape:collect="always"
       style="color-interpolation-filters:sRGB"
       id="filter1166"
       x="-0.052638612"
       width="1.1052772"
       y="-0.052583693"
       height="1.1051674">
      <feGaussianBlur
         inkscape:collect="always"
         stdDeviation="1.3351856"
         id="feGaussianBlur1168" />
    </filter>
  </defs>
  <metadata
     id="metadata5">
    <rdf:RDF>
      <cc:Work
         rdf:about="">
        <dc:format>image/svg+xml</dc:format>
        <dc:type
           rdf:resource="http://purl.org/dc/dcmitype/StillImage" />
        <dc:title></dc:title>
      </cc:Work>
    </rdf:RDF>
  </metadata>
  <g id="layer1">
    <g
       id="g1173">
      <rect
         style="fill:#000000;stroke:none;stroke-width:1.45613;stroke-linecap:round;stroke-linejoin:round;stroke-miterlimit:4;stroke-dasharray:none;filter:url(#filter1166)"
         id="rect874"
         width="60.876328"
         height="60.939907"
         x="37.798405"
         y="95.25"
         ry="18.910769"
         transform="matrix(1.0248098,0,0,1.0248098,-36.195129,-95.104666)" />
      <rect
         style="fill:#ffffff;stroke:none;stroke-width:1.39445;stroke-linecap:round;stroke-linejoin:round;stroke-miterlimit:4;stroke-dasharray:none"
         id="rect880"
         width="58.298038"
         height="58.358925"
         x="4.5853553"
         y="4.5549064"
         ry="18.109842" />
      <path
         style="fill:#4267b2;fill-opacity:1;stroke-width:0.264583"
         d="m 41.102628,155.21602 c -1.2315,-0.18685 -2.25676,-1.46683 -2.44579,-3.05344 -0.0909,-0.76316 -0.12918,-13.23428 -0.085,-27.7136 0.0751,-24.596586 0.11085,-26.370965 0.54509,-27.009872 1.02285,-1.50495 -0.45054,-1.432836 29.2748,-1.432836 25.952022,0 27.447722,0.02532 28.111279,0.475918 1.466185,0.995632 1.415819,-0.04725 1.415819,29.31583 0,29.772 0.08981,28.11971 -1.578144,29.03447 -0.687925,0.37728 -1.932022,0.45201 -8.674464,0.52109 l -7.87135,0.0806 -5.3e-4,-11.45772 -5.3e-4,-11.45773 3.61044,0.081 c 1.98573,0.0445 3.71213,-0.0207 3.83643,-0.14505 0.23321,-0.23304 1.28544,-7.26138 1.28544,-8.58489 v -0.74368 h -4.36563 -4.36562 l 0.004,-3.63802 c 0.004,-3.93521 0.15961,-4.53997 1.40413,-5.4646 0.65296,-0.48512 1.19207,-0.56622 4.29948,-0.64677 l 3.55292,-0.0921 v -4.04564 -4.04564 l -0.87344,-0.16385 c -0.48039,-0.0901 -2.65328,-0.17079 -4.82865,-0.17926 -5.36495,-0.0209 -7.17976,0.5186 -9.71175,2.88697 -2.63911,2.46858 -3.36409,4.82535 -3.36844,10.95007 l -0.003,4.4247 -3.9026,0.0732 -3.90261,0.0732 v 4.63021 4.63021 h 3.90283 3.90283 l -2.3e-4,11.44323 -2.2e-4,11.44323 -14.22135,-0.0397 c -7.82175,-0.0218 -14.5474,-0.0891 -14.94589,-0.14956 z"
         id="path847"
         clip-path="url(#clipPath876)"
         transform="translate(-34.502196,-91.985583)" />
    </g>
  </g>
</svg>
