<?xml version="1.0" encoding="UTF-8" standalone="no"?>
<svg
   xmlns:dc="http://purl.org/dc/elements/1.1/"
   xmlns:cc="http://creativecommons.org/ns#"
   xmlns:rdf="http://www.w3.org/1999/02/22-rdf-syntax-ns#"
   xmlns:svg="http://www.w3.org/2000/svg"
   xmlns="http://www.w3.org/2000/svg"
   xmlns:xlink="http://www.w3.org/1999/xlink"
   width="200"
   height="200"
   viewBox="0 0 52.916665 52.916668"
   version="1.1"
   id="svg8">
  <defs
     id="defs2">
    <linearGradient
       id="linearGradient1563">
      <stop
         style="stop-color:#4d4d4d;stop-opacity:1"
         offset="0"
         id="stop1559" />
      <stop
         style="stop-color:#666666;stop-opacity:1"
         offset="1"
         id="stop1561" />
    </linearGradient>
    <linearGradient
       id="linearGradient1555">
      <stop
         style="stop-color:#999999;stop-opacity:1"
         offset="0"
         id="stop1551" />
      <stop
         style="stop-color:#e6e6e6;stop-opacity:1"
         offset="1"
         id="stop1553" />
    </linearGradient>
    <linearGradient
       id="linearGradient916">
      <stop
         style="stop-color:#000000;stop-opacity:0.66425993"
         offset="0"
         id="stop912" />
      <stop
         style="stop-color:#000000;stop-opacity:0"
         offset="1"
         id="stop914" />
    </linearGradient>
    <linearGradient
       id="linearGradient895">
      <stop
         style="stop-color:#8337a2;stop-opacity:1"
         offset="0"
         id="stop891" />
      <stop
         style="stop-color:#431c53;stop-opacity:1"
         offset="1"
         id="stop893" />
    </linearGradient>
    <linearGradient
       id="linearGradient881">
      <stop
         style="stop-color:#ff1493;stop-opacity:1"
         offset="0"
         id="stop877" />
      <stop
         style="stop-color:#93004f;stop-opacity:1"
         offset="1"
         id="stop879" />
    </linearGradient>
    <linearGradient
       xlink:href="#linearGradient881"
       id="linearGradient883"
       x1="79.752975"
       y1="69.925591"
       x2="178.78273"
       y2="168.95535"
       gradientUnits="userSpaceOnUse"
       gradientTransform="matrix(0.53435118,0,0,0.53435118,-42.663344,-37.317576)" />
    <linearGradient
       xlink:href="#linearGradient895"
       id="linearGradient897"
       x1="8.2738533"
       y1="7.7485161"
       x2="44.973473"
       y2="45.168159"
       gradientUnits="userSpaceOnUse" />
    <linearGradient
       xlink:href="#linearGradient916"
       id="linearGradient918"
       x1="31.601562"
       y1="31.871197"
       x2="199.82143"
       y2="200.17857"
       gradientUnits="userSpaceOnUse"
       gradientTransform="scale(0.26458333)" />
    <linearGradient
       xlink:href="#linearGradient1555"
       id="linearGradient1557"
       x1="-0.047247171"
       y1="0.047246877"
       x2="52.751392"
       y2="52.963692"
       gradientUnits="userSpaceOnUse" />
    <linearGradient
       xlink:href="#linearGradient1563"
       id="linearGradient1565"
       x1="8.5135813"
       y1="7.7213082"
       x2="45.020721"
       y2="45.195366"
       gradientUnits="userSpaceOnUse" />
  </defs>
  <metadata
     id="metadata5">
    <rdf:RDF>
      <cc:Work
         rdf:about="">
        <dc:format>image/svg+xml</dc:format>
        <dc:type
           rdf:resource="http://purl.org/dc/dcmitype/StillImage" />
        <dc:title></dc:title>
      </cc:Work>
    </rdf:RDF>
  </metadata>
  <rect
     style="fill:url(#linearGradient1557);fill-opacity:1.0;stroke-width:0.758779;stroke-linecap:round;stroke-linejoin:round"
     id="rect875"
     width="52.916668"
     height="52.916668"
     x="-0.047247171"
     y="0.047246877"
     ry="0" />
  <path
     id="path907"
     style="fill:url(#linearGradient918);fill-opacity:1;stroke:none;stroke-width:0.264583px;stroke-linecap:butt;stroke-linejoin:miter;stroke-opacity:1"
     d="M 31.41927,8.2682291 20.753255,30.604333 15.696199,25.546761 8.3612465,44.741454 16.583484,52.96369 h 36.16791 c 0,0 0.118248,-7.025941 0.118248,-15.753558 V 29.7186 Z" />
  <g
     id="g1020">
    <path
       style="fill:url(#linearGradient1565);fill-opacity:1;stroke-width:0.0556163"
       d="M 8.734248,45.013582 C 8.4375832,44.855943 8.2032136,44.657485 8.2032136,44.563899 c 0,-0.03201 -0.025066,-0.05815 -0.055601,-0.05815 -0.030592,0 -0.055601,-0.05001 -0.055601,-0.111225 0,-0.0612 -0.021791,-0.111241 -0.048439,-0.111241 -0.026648,0 -0.067887,-0.131397 -0.091646,-0.291986 -0.065562,-0.443201 -0.078218,-17.433405 -0.01323,-17.699907 0.029865,-0.12235 0.082825,-0.285033 0.1176919,-0.36151 0.090389,-0.198233 0.5597889,-0.667388 0.6677428,-0.667388 0.049956,0 0.090856,-0.02506 0.090856,-0.0556 0,-0.03211 0.1761157,-0.0556 0.4171258,-0.0556 0.2409977,0 0.4171193,-0.02351 0.4171193,-0.0556 0,-0.0334 0.2224659,-0.0556 0.5561586,-0.0556 0.333706,0 0.556166,0.02223 0.556166,0.0556 0,0.0334 0.222456,0.0556 0.556164,0.0556 0.333697,0 0.556163,-0.02223 0.556163,-0.0556 0,-0.0334 0.222466,-0.0556 0.556174,-0.0556 0.333686,0 0.556153,0.02223 0.556153,0.0556 0,0.0334 0.222466,0.0556 0.556163,0.0556 0.333702,0 0.556169,-0.02223 0.556169,-0.0556 0,-0.03094 0.148309,-0.0556 0.333697,-0.0556 0.185377,0 0.333691,0.02479 0.333691,0.0556 0,0.03051 0.100111,0.0556 0.222467,0.0556 0.122361,0 0.222466,0.02506 0.222466,0.0556 0,0.03056 0.04382,0.0556 0.09735,0.0556 0.12795,0 0.570046,0.406123 0.570046,0.523669 0,0.05039 0.03751,0.105999 0.08341,0.123612 0.04761,0.01827 0.08344,0.1012 0.08344,0.192911 0,0.0885 0.02506,0.160899 0.0556,0.160899 0.03687,0 0.0556,2.994017 0.0556,8.870812 0,5.876794 -0.01881,8.870812 -0.0556,8.870812 -0.03062,0 -0.0556,0.05092 -0.0556,0.113186 0,0.237268 -0.395484,0.689163 -0.801538,0.915862 l -0.248772,0.138888 -2.992581,-0.0066 -2.9925774,-0.0066 z M 20.494427,42.72603 c 0,-0.03137 -0.157591,-0.0556 -0.36151,-0.0556 -0.20393,0 -0.36151,-0.02421 -0.36151,-0.0556 0,-0.03057 -0.05633,-0.0556 -0.125161,-0.0556 -0.148079,0 -0.597848,-0.392657 -0.597848,-0.521933 0,-0.04943 -0.02383,-0.08985 -0.05311,-0.08985 -0.02918,0 -0.06953,-0.08761 -0.08961,-0.194659 -0.02004,-0.107067 -0.05876,-0.194664 -0.08593,-0.194664 -0.0272,0 -0.04943,-0.187696 -0.04943,-0.417109 0,-0.241014 -0.02351,-0.41712 -0.0556,-0.41712 -0.03607,0 -0.05596,-0.709688 -0.05651,-2.016101 -4.11e-4,-1.108854 -0.01961,-1.986622 -0.04248,-1.950612 -0.02292,0.03601 -0.04852,-1.152788 -0.05688,-2.641784 -0.0083,-1.488991 -0.03869,-2.907469 -0.06717,-3.152186 -0.07971,-0.682607 -0.09716,-5.33198 -0.02031,-5.427912 0.06163,-0.077 0.109093,-0.266898 0.168924,-0.675981 0.01683,-0.114709 0.05295,-0.208558 0.08027,-0.208558 0.02736,0 0.04975,-0.04863 0.04975,-0.107949 0,-0.05937 0.02506,-0.123414 0.0556,-0.142319 0.03056,-0.01892 0.0556,-0.08182 0.0556,-0.139797 0,-0.05803 0.06258,-0.167995 0.139038,-0.244471 0.07647,-0.07647 0.139044,-0.181033 0.139044,-0.232368 0,-0.0513 0.04558,-0.133818 0.101275,-0.183288 0.05566,-0.04948 0.148705,-0.171276 0.206655,-0.270697 0.05791,-0.09942 0.12196,-0.180755 0.142244,-0.180755 0.0202,0 0.06798,-0.07508 0.105989,-0.166846 0.03799,-0.09177 0.09111,-0.166846 0.117985,-0.166846 0.02688,0 0.04884,-0.02602 0.04884,-0.05791 0,-0.05457 0.04344,-0.117461 0.208563,-0.301508 0.03831,-0.04259 0.06952,-0.104332 0.06952,-0.137114 0,-0.03276 0.02506,-0.05955 0.0556,-0.05955 0.03056,0 0.0556,-0.04093 0.0556,-0.09081 0,-0.04991 0.04558,-0.13128 0.101281,-0.18075 0.05566,-0.04948 0.148705,-0.171292 0.206655,-0.270702 0.05791,-0.09942 0.125001,-0.18075 0.148983,-0.18075 0.02399,0 0.0436,-0.05001 0.0436,-0.111236 0,-0.06119 0.01961,-0.11123 0.0436,-0.11123 0.02399,0 0.09103,-0.08134 0.148982,-0.180766 0.05791,-0.09941 0.150949,-0.221222 0.206655,-0.270697 0.05566,-0.04948 0.101281,-0.131867 0.101281,-0.183096 0,-0.05124 0.02549,-0.123381 0.0567,-0.160332 0.257883,-0.305451 0.332484,-0.409131 0.332537,-0.462133 3.8e-5,-0.03366 0.07515,-0.139845 0.166921,-0.235868 0.09176,-0.09603 0.166851,-0.198715 0.166851,-0.228184 0,-0.02944 0.06258,-0.116163 0.139033,-0.192634 0.07648,-0.07648 0.139043,-0.17772 0.139043,-0.224994 0,-0.04724 0.02506,-0.08595 0.0556,-0.08595 0.03056,0 0.0556,-0.02688 0.0556,-0.05954 0,-0.03276 0.03126,-0.09258 0.06951,-0.132883 0.03831,-0.04034 0.119583,-0.143142 0.180755,-0.22851 0.0612,-0.08537 0.167546,-0.212148 0.236365,-0.28172 0.06883,-0.06956 0.12514,-0.153092 0.12514,-0.185618 0,-0.0326 0.0876,-0.144189 0.194659,-0.248163 0.107062,-0.103974 0.194653,-0.216701 0.194653,-0.25052 0,-0.03382 0.13766,-0.19694 0.305895,-0.362514 0.16824,-0.165574 0.3059,-0.31632 0.3059,-0.334996 0,-0.04446 0.262853,-0.30699 0.307321,-0.30699 0.04462,0 0.193222,-0.148672 0.193222,-0.193216 0,-0.04334 0.262003,-0.307332 0.304975,-0.307332 0.01753,0 0.192271,-0.162674 0.38818,-0.361504 0.19592,-0.198823 0.383065,-0.361506 0.415891,-0.361506 0.11636,0 0.842714,-0.79068 0.875091,-0.952577 0.01753,-0.08786 0.05384,-0.159745 0.08061,-0.159745 0.02682,0 0.04868,-0.06256 0.04868,-0.13904 0,-0.07648 0.02506,-0.13904 0.0556,-0.13904 0.03056,0 0.0556,-0.05943 0.0556,-0.132053 0,-0.07262 0.03751,-0.238448 0.08343,-0.368499 0.06573,-0.186301 0.08343,-0.535054 0.08343,-1.644392 0,-0.878634 0.02095,-1.420863 0.0556,-1.442315 0.03062,-0.01888 0.0556,-0.170545 0.0556,-0.336979 0,-0.1664338 0.02506,-0.3026079 0.0556,-0.3026079 0.03062,0 0.0556,-0.087596 0.0556,-0.1946566 0,-0.1070616 0.02506,-0.1946567 0.0556,-0.1946567 0.03062,0 0.0556,-0.048578 0.0556,-0.1079507 0,-0.059371 0.02543,-0.1236531 0.05645,-0.1428443 0.0311,-0.019194 0.09379,-0.1242495 0.139428,-0.2334634 0.04563,-0.1092123 0.13285,-0.2418308 0.193815,-0.2947059 0.06095,-0.052869 0.110856,-0.1137596 0.110856,-0.1352983 0,-0.054855 0.1491,-0.1980653 0.206206,-0.1980653 0.02597,0 0.08339,-0.050058 0.127486,-0.1112326 0.04408,-0.061176 0.122617,-0.1112322 0.174492,-0.1112322 0.05189,0 0.102665,-0.018777 0.112855,-0.041711 0.02891,-0.064944 0.426866,-0.2363697 0.548789,-0.2363697 0.06015,0 0.109345,-0.025029 0.109345,-0.05562 0,-0.033985 0.259545,-0.055614 0.667399,-0.055614 0.407844,0 0.667389,0.021625 0.667389,0.055614 0,0.030592 0.08581,0.05562 0.190688,0.05562 0.104877,0 0.228227,0.037544 0.274112,0.083425 0.04585,0.04589 0.122751,0.083424 0.170816,0.083424 0.04815,0 0.0874,0.025029 0.0874,0.055619 0,0.030592 0.03751,0.055613 0.08342,0.055613 0.04585,0 0.08342,0.025034 0.08342,0.055614 0,0.030592 0.05002,0.05562 0.111236,0.05562 0.0612,0 0.11123,0.024831 0.11123,0.055195 0,0.056227 0.150345,0.2479822 0.375414,0.4788086 0.06883,0.070587 0.12514,0.1545044 0.12514,0.1864837 0,0.031976 0.02506,0.058144 0.0556,0.058144 0.03051,0 0.0556,0.031286 0.05566,0.069521 3.8e-5,0.038233 0.06264,0.1422389 0.139044,0.231117 0.07643,0.088877 0.138969,0.1952434 0.138969,0.2363687 0,0.041124 0.02506,0.074774 0.0556,0.074774 0.03051,0 0.0556,0.075082 0.0556,0.166849 0,0.091767 0.02501,0.1668495 0.0556,0.1668495 0.03056,0 0.0556,0.062567 0.0556,0.1390401 0,0.07647 0.02506,0.139042 0.0556,0.139042 0.03062,0 0.0556,0.03932 0.0556,0.0874 0,0.04808 0.03757,0.124941 0.08342,0.170824 0.04585,0.04589 0.08343,0.144206 0.08343,0.218491 0,0.07428 0.02506,0.13507 0.0556,0.13507 0.03062,0 0.0556,0.0876 0.0556,0.194653 0,0.107063 0.0218,0.194659 0.04836,0.194659 0.02666,0 0.06311,0.106365 0.08112,0.236373 0.01801,0.130001 0.0765,0.399043 0.129991,0.597872 0.07891,0.293388 0.09769,0.603591 0.09962,1.646262 0.0016,0.893549 -0.01795,1.325392 -0.06445,1.418214 -0.03676,0.0734 -0.07959,0.258602 -0.09518,0.411548 -0.05237,0.513794 -0.09961,0.750811 -0.14972,0.750811 -0.0273,0 -0.04975,0.0876 -0.04975,0.194653 0,0.107063 -0.02506,0.194659 -0.0556,0.194659 -0.03057,0 -0.0556,0.08581 -0.0556,0.190683 0,0.104877 -0.03751,0.228227 -0.08343,0.274112 -0.04585,0.04585 -0.08342,0.146305 -0.08342,0.223156 0,0.07685 -0.02506,0.155197 -0.0556,0.174102 -0.03062,0.01892 -0.0556,0.08295 -0.0556,0.142324 0,0.05936 -0.02506,0.10795 -0.0556,0.10795 -0.03062,0 -0.0556,0.0876 -0.0556,0.194653 0,0.107063 -0.02506,0.194659 -0.0556,0.194659 -0.03062,0 -0.0556,0.05002 -0.0556,0.111231 0,0.0612 -0.02453,0.111241 -0.05457,0.111241 -0.02998,0 -0.07026,0.06257 -0.08946,0.139033 -0.01918,0.07648 -0.05173,0.139043 -0.07234,0.139043 -0.02057,0 -0.07204,0.118883 -0.114304,0.264183 -0.04227,0.145296 -0.09154,0.276687 -0.109467,0.291981 -0.059,0.05034 -0.340269,0.638036 -0.339372,0.709105 4.17e-4,0.03826 -0.02415,0.06952 -0.05475,0.06952 -0.03057,0 -0.0556,0.0876 -0.0556,0.194664 0,0.107052 -0.02506,0.194654 -0.0556,0.194654 -0.03056,0 -0.0556,0.06257 -0.0556,0.139038 0,0.07647 0.02506,0.139038 0.0556,0.139038 0.03062,0 0.0556,0.05007 0.0556,0.111236 0,0.08651 0.03708,0.111231 0.166851,0.111231 0.09176,0 0.166846,0.02506 0.166846,0.0556 0,0.03644 1.028903,0.0556 2.975481,0.0556 1.946566,0 2.975465,-0.01924 2.975465,-0.0556 0,-0.0334 0.222466,-0.0556 0.556169,-0.0556 0.333691,0 0.556158,0.02223 0.556158,0.0556 0,0.0334 0.222466,0.0556 0.556163,0.0556 0.333702,0 0.556169,-0.02223 0.556169,-0.0556 0,-0.0334 0.222466,-0.0556 0.556158,-0.0556 0.333697,0 0.556169,0.02223 0.556169,0.0556 0,0.08618 1.096162,0.0727 1.131109,-0.01384 0.02239,-0.0556 0.02896,-0.0556 0.03243,0 0.0027,0.04686 0.106608,0.06951 0.318345,0.06951 0.244647,0 0.403312,0.04302 0.718676,0.194659 0.222584,0.107057 0.42001,0.194653 0.438713,0.194653 0.05767,0 0.419615,0.382136 0.419615,0.443079 0,0.03158 0.02688,0.05743 0.05955,0.05743 0.07701,0 0.218496,0.141501 0.218496,0.218496 0,0.03276 0.02506,0.05954 0.0556,0.05954 0.03051,0 0.0556,0.05001 0.0556,0.111235 0,0.06119 0.02506,0.111226 0.0556,0.111226 0.03062,0 0.0556,0.05007 0.0556,0.111236 0,0.06119 0.02501,0.111235 0.0556,0.111235 0.03056,0 0.0556,0.06052 0.0556,0.134406 0,0.07393 0.02955,0.144269 0.0658,0.15634 0.04189,0.01389 0.07479,0.210289 0.09055,0.539807 0.01934,0.405044 0.0027,0.589085 -0.07968,0.844751 -0.05743,0.179787 -0.123237,0.326889 -0.146177,0.326889 -0.02298,0 -0.04168,0.05001 -0.04168,0.111225 0,0.0612 -0.02506,0.111236 -0.0556,0.111236 -0.03051,0 -0.0556,0.02602 -0.0556,0.05791 0,0.06529 -0.05943,0.142623 -0.319793,0.41596 -0.09941,0.104369 -0.180755,0.203059 -0.180755,0.219303 0,0.01624 -0.08759,0.122399 -0.194653,0.235905 -0.16947,0.179671 -0.194648,0.24266 -0.194595,0.486773 6.4e-5,0.276463 0.01282,0.302518 0.332543,0.681271 0.03121,0.03698 0.05669,0.08773 0.05669,0.11286 0,0.02522 0.05002,0.08176 0.11123,0.125851 0.0612,0.04408 0.111241,0.106197 0.111241,0.137991 0,0.03174 0.06257,0.125278 0.139033,0.207755 0.07648,0.08247 0.139038,0.188583 0.139038,0.235804 0,0.04724 0.02506,0.08585 0.0556,0.08585 0.03062,0 0.05566,0.03126 0.05584,0.06952 1.12e-4,0.03826 0.0627,0.192639 0.139038,0.343123 0.07635,0.150479 0.138809,0.344443 0.138809,0.431024 0,0.08659 0.02506,0.157425 0.0556,0.157425 0.0327,0 0.0556,0.194659 0.0556,0.472735 0,0.278093 -0.02292,0.472752 -0.0556,0.472752 -0.03062,0 -0.0556,0.05778 -0.0556,0.128399 0,0.07063 -0.03676,0.176988 -0.08165,0.236375 -0.04494,0.05937 -0.08246,0.151751 -0.08343,0.205282 -0.0011,0.05348 -0.02688,0.09733 -0.05736,0.09733 -0.03051,0 -0.0556,0.04457 -0.0556,0.09896 0,0.05445 -0.05002,0.135031 -0.111236,0.179131 -0.0612,0.04408 -0.111236,0.10073 -0.111236,0.125856 0,0.07798 -0.687282,0.819625 -0.759548,0.819625 -0.07908,0 -0.408394,0.406604 -0.408394,0.504256 0,0.05554 -0.02624,0.117178 -0.05833,0.136997 -0.03676,0.02271 -0.03906,0.06003 -0.0064,0.100619 0.02848,0.03553 0.06822,0.141042 0.08817,0.23451 0.01998,0.09348 0.08541,0.205367 0.145461,0.248655 0.06009,0.04328 0.109189,0.123222 0.109189,0.177645 0,0.05445 0.02506,0.09895 0.0556,0.09895 0.03057,0 0.0556,0.03751 0.0556,0.08343 0,0.04585 0.02506,0.08341 0.0556,0.08341 0.03062,0 0.0556,0.04825 0.0556,0.107266 0,0.059 0.03757,0.144798 0.08343,0.190689 0.04585,0.04585 0.08343,0.135265 0.08343,0.198623 0,0.06337 0.03126,0.115596 0.06952,0.116067 0.04638,4.59e-4 0.04168,0.01886 -0.01389,0.05475 -0.0556,0.03585 -0.06027,0.05415 -0.01384,0.05476 0.05092,4.65e-4 0.06952,0.149619 0.06952,0.557019 0,0.333686 -0.02223,0.556158 -0.0556,0.556158 -0.03062,0 -0.0556,0.05949 -0.0556,0.132235 0,0.07272 -0.03751,0.163389 -0.08343,0.201467 -0.04585,0.03805 -0.08342,0.106181 -0.08342,0.151344 0,0.04515 -0.07509,0.152242 -0.166846,0.237974 -0.09177,0.08572 -0.166857,0.183357 -0.166857,0.216967 0,0.03361 -0.03901,0.06113 -0.08671,0.06113 -0.04766,0 -0.07123,0.02506 -0.05237,0.0556 0.01892,0.03062 0.0064,0.0556 -0.02763,0.0556 -0.09593,0 -0.611929,0.530279 -0.611929,0.628878 0,0.04814 -0.02506,0.103034 -0.0556,0.121944 -0.03056,0.01892 -0.0556,0.144045 -0.0556,0.278077 0,0.134036 0.02506,0.259181 0.0556,0.278092 0.03062,0.01892 0.0556,0.09546 0.0556,0.170121 0,0.07467 0.02383,0.135763 0.05311,0.135763 0.02918,0 0.06953,0.0876 0.0896,0.194659 0.02009,0.107062 0.05876,0.194653 0.08595,0.194653 0.0272,0 0.04943,0.0876 0.04943,0.194659 0,0.107063 0.02506,0.194653 0.0556,0.194653 0.03062,0 0.0556,0.112626 0.0556,0.25028 0,0.141571 0.02597,0.250274 0.05991,0.250274 0.04008,0 0.05007,0.142137 0.03035,0.431024 -0.04638,0.67714 -0.09669,1.015 -0.151189,1.015 -0.02763,0 -0.05034,0.05183 -0.05034,0.1152 0,0.06338 -0.03126,0.150094 -0.06952,0.19273 -0.149105,0.166269 -0.208557,0.244829 -0.208557,0.275549 0,0.04472 -0.377386,0.417617 -0.422651,0.417617 -0.02036,0 -0.07753,0.04558 -0.126999,0.101436 -0.111316,0.125546 -0.433423,0.287882 -0.571221,0.287882 -0.05651,0 -0.102687,0.02506 -0.102687,0.0556 0,0.03062 -0.0876,0.0556 -0.194664,0.0556 -0.107057,0 -0.194659,0.02506 -0.194659,0.0556 0,0.03062 -0.08134,0.05621 -0.180749,0.05693 -0.09941,4.6e-4 -0.28086,0.02752 -0.403216,0.05948 -0.129351,0.03382 -1.176866,0.06811 -2.502736,0.08187 -1.254148,0.01304 -2.590486,0.04879 -2.969646,0.07951 -0.379164,0.03073 -1.636787,0.0559 -2.794731,0.0559 -1.366486,0 -2.105338,0.01956 -2.105338,0.0556 0,0.03057 -0.06258,0.0556 -0.139044,0.0556 -0.07646,0 -0.139043,-0.02506 -0.139043,-0.0556 0,-0.0334 -0.222461,-0.0556 -0.556164,-0.0556 -0.333691,0 -0.556158,0.02223 -0.556158,0.0556 0,0.03628 -0.843516,0.0556 -2.419312,0.0556 -1.575807,0 -2.419313,0.0194 -2.419313,0.0556 0,0.03174 -0.166851,0.0556 -0.389312,0.0556 -0.235307,0 -0.389317,-0.02314 -0.389317,-0.05852 0,-0.03698 -0.163923,-0.05457 -0.444933,-0.04777 -0.244712,0.0055 -0.444928,0.03222 -0.444928,0.05852 0,0.02629 -0.375408,0.04772 -0.83425,0.04772 -0.51908,0 -0.834235,-0.02105 -0.834235,-0.0556 z m -1.851628,-6.353526 c -0.01331,-0.06918 -0.02469,-0.02576 -0.02533,0.09668 -4.6e-4,0.122361 0.01026,0.178959 0.02421,0.125786 0.01389,-0.05317 0.01437,-0.153284 0.0011,-0.222466 z"
       id="path869" />
  </g>
</svg>
