<?xml version="1.0" encoding="UTF-8" standalone="no"?>
<svg
   xmlns:dc="http://purl.org/dc/elements/1.1/"
   xmlns:cc="http://creativecommons.org/ns#"
   xmlns:rdf="http://www.w3.org/1999/02/22-rdf-syntax-ns#"
   xmlns:svg="http://www.w3.org/2000/svg"
   xmlns="http://www.w3.org/2000/svg"
   xmlns:xlink="http://www.w3.org/1999/xlink"
   xmlns:sodipodi="http://sodipodi.sourceforge.net/DTD/sodipodi-0.dtd"
   xmlns:inkscape="http://www.inkscape.org/namespaces/inkscape"
   width="300"
   height="300"
   viewBox="0 0 79.374998 79.375002"
   version="1.1"
   id="svg8"
   sodipodi:docname="navbar_button.svg"
   inkscape:version="1.0.2 (e86c870879, 2021-01-15)">
  <defs
     id="defs2">
    <linearGradient
       inkscape:collect="always"
       id="linearGradient841">
      <stop
         style="stop-color:#ff86c7;stop-opacity:1"
         offset="0"
         id="stop837" />
      <stop
         style="stop-color:#f20082;stop-opacity:1"
         offset="1"
         id="stop839" />
    </linearGradient>
    <linearGradient
       inkscape:collect="always"
       xlink:href="#linearGradient841"
       id="linearGradient843"
       x1="-12.315361"
       y1="-13.096208"
       x2="56.414833"
       y2="56.393867"
       gradientUnits="userSpaceOnUse"
       gradientTransform="matrix(0.91713227,0,0,0.91713227,19.587533,20.077778)" />
    <filter
       inkscape:collect="always"
       style="color-interpolation-filters:sRGB"
       id="filter954"
       x="-0.028917358"
       width="1.0578347"
       y="-0.028917358"
       height="1.0578347">
      <feGaussianBlur
         inkscape:collect="always"
         stdDeviation="0.85537136"
         id="feGaussianBlur956" />
    </filter>
  </defs>
  <sodipodi:namedview
     id="base"
     pagecolor="#ffffff"
     bordercolor="#666666"
     borderopacity="1.0"
     inkscape:pageopacity="0.0"
     inkscape:pageshadow="2"
     inkscape:zoom="0.98994949"
     inkscape:cx="287.44955"
     inkscape:cy="149.1007"
     inkscape:document-units="mm"
     inkscape:current-layer="layer1"
     inkscape:document-rotation="0"
     showgrid="true"
     units="px"
     inkscape:snap-bbox="true"
     inkscape:window-width="1350"
     inkscape:window-height="728"
     inkscape:window-x="0"
     inkscape:window-y="0"
     inkscape:window-maximized="0" />
  <metadata
     id="metadata5">
    <rdf:RDF>
      <cc:Work
         rdf:about="">
        <dc:format>image/svg+xml</dc:format>
        <dc:type
           rdf:resource="http://purl.org/dc/dcmitype/StillImage" />
        <dc:title></dc:title>
      </cc:Work>
    </rdf:RDF>
  </metadata>
  <g
     inkscape:label="Warstwa 1"
     inkscape:groupmode="layer"
     id="layer1">
    <path
       id="path952"
       style="color:#000000;font-style:normal;font-variant:normal;font-weight:normal;font-stretch:normal;font-size:medium;line-height:normal;font-family:sans-serif;font-variant-ligatures:normal;font-variant-position:normal;font-variant-caps:normal;font-variant-numeric:normal;font-variant-alternates:normal;font-variant-east-asian:normal;font-feature-settings:normal;font-variation-settings:normal;text-indent:0;text-align:start;text-decoration:none;text-decoration-line:none;text-decoration-style:solid;text-decoration-color:#000000;letter-spacing:normal;word-spacing:normal;text-transform:none;writing-mode:lr-tb;direction:ltr;text-orientation:mixed;dominant-baseline:auto;baseline-shift:baseline;text-anchor:start;white-space:normal;shape-padding:0;shape-margin:0;inline-size:0;clip-rule:nonzero;display:inline;overflow:visible;visibility:visible;opacity:1;isolation:auto;mix-blend-mode:normal;color-interpolation:sRGB;color-interpolation-filters:linearRGB;solid-color:#000000;solid-opacity:1;vector-effect:none;fill:#000000;fill-opacity:1;fill-rule:nonzero;stroke:none;stroke-width:0.917133;stroke-linecap:round;stroke-linejoin:round;stroke-miterlimit:4;stroke-dasharray:none;stroke-dashoffset:0;stroke-opacity:1;color-rendering:auto;image-rendering:auto;shape-rendering:auto;text-rendering:auto;enable-background:accumulate;stop-color:#000000;stop-opacity:1;filter:url(#filter954)"
       d="M 41.38783,5.692 C 21.826787,5.692 5.892,21.626787 5.892,41.18783 c 0,19.561042 15.934787,35.495829 35.49583,35.495829 19.561042,0 35.495829,-15.934787 35.495829,-35.495829 C 76.883659,21.626787 60.948872,5.692 41.38783,5.692 Z m 0,7.259832 c 15.636941,0 28.235997,12.599055 28.235997,28.235998 0,15.636941 -12.599056,28.235997 -28.235997,28.235997 -15.636943,0 -28.235998,-12.599056 -28.235998,-28.235997 0,-15.636943 12.599055,-28.235998 28.235998,-28.235998 z m 0.368252,3.316167 c -2.919643,0 -5.270699,2.569046 -5.270699,5.760282 V 48.034384 L 24.817422,36.365952 c -2.0645,-2.064499 -5.389174,-2.064499 -7.453674,0 -2.064497,2.064497 -2.064499,5.3887 0,7.453199 L 37.123306,63.57871 c 0.235036,0.235034 0.487228,0.441713 0.751196,0.623233 0.102251,0.122469 0.209574,0.241799 0.324652,0.356877 2.0645,2.064502 5.389173,2.0645 7.453672,0 l 19.75861,-19.759083 c 2.0645,-2.0645 2.064502,-5.3887 0,-7.453202 -2.064492,-2.064494 -5.388226,-2.064497 -7.452726,0 L 47.025836,48.279412 V 22.028281 c 0,-3.191236 -2.350113,-5.760282 -5.269754,-5.760282 z" />
    <path
       id="path835"
       style="color:#000000;font-style:normal;font-variant:normal;font-weight:normal;font-stretch:normal;font-size:medium;line-height:normal;font-family:sans-serif;font-variant-ligatures:normal;font-variant-position:normal;font-variant-caps:normal;font-variant-numeric:normal;font-variant-alternates:normal;font-variant-east-asian:normal;font-feature-settings:normal;font-variation-settings:normal;text-indent:0;text-align:start;text-decoration:none;text-decoration-line:none;text-decoration-style:solid;text-decoration-color:#000000;letter-spacing:normal;word-spacing:normal;text-transform:none;writing-mode:lr-tb;direction:ltr;text-orientation:mixed;dominant-baseline:auto;baseline-shift:baseline;text-anchor:start;white-space:normal;shape-padding:0;shape-margin:0;inline-size:0;clip-rule:nonzero;display:inline;overflow:visible;visibility:visible;opacity:1;isolation:auto;mix-blend-mode:normal;color-interpolation:sRGB;color-interpolation-filters:linearRGB;solid-color:#000000;solid-opacity:1;vector-effect:none;fill:url(#linearGradient843);fill-opacity:1;fill-rule:nonzero;stroke:none;stroke-width:0.917133;stroke-linecap:round;stroke-linejoin:round;stroke-miterlimit:4;stroke-dasharray:none;stroke-dashoffset:0;stroke-opacity:1;color-rendering:auto;image-rendering:auto;shape-rendering:auto;text-rendering:auto;enable-background:accumulate;stop-color:#000000;stop-opacity:1"
       d="m 39.6875,4.1916703 c -19.561043,0 -35.4958297,15.9347867 -35.4958297,35.4958297 0,19.561042 15.9347867,35.495829 35.4958297,35.495829 19.561042,0 35.495829,-15.934787 35.495829,-35.495829 0,-19.561043 -15.934787,-35.4958297 -35.495829,-35.4958297 z m 0,7.2598317 c 15.636941,0 28.235997,12.599055 28.235997,28.235998 0,15.636941 -12.599056,28.235997 -28.235997,28.235997 -15.636943,0 -28.235998,-12.599056 -28.235998,-28.235997 0,-15.636943 12.599055,-28.235998 28.235998,-28.235998 z m 0.368252,3.316167 c -2.919643,0 -5.270699,2.569046 -5.270699,5.760282 V 46.534054 L 23.117092,34.865622 c -2.0645,-2.064499 -5.389174,-2.064499 -7.453674,0 -2.064497,2.064497 -2.064499,5.3887 0,7.453199 L 35.422976,62.07838 c 0.235036,0.235034 0.487228,0.441713 0.751196,0.623233 0.102251,0.122469 0.209574,0.241799 0.324652,0.356877 2.0645,2.064502 5.389173,2.0645 7.453672,0 l 19.75861,-19.759083 c 2.0645,-2.0645 2.064502,-5.3887 0,-7.453202 -2.064492,-2.064494 -5.388226,-2.064497 -7.452726,0 L 45.325506,46.779082 V 20.527951 c 0,-3.191236 -2.350113,-5.760282 -5.269754,-5.760282 z" />
  </g>
</svg>
