<?xml version="1.0" encoding="UTF-8" standalone="no"?>
<svg
   xmlns:dc="http://purl.org/dc/elements/1.1/"
   xmlns:cc="http://creativecommons.org/ns#"
   xmlns:rdf="http://www.w3.org/1999/02/22-rdf-syntax-ns#"
   xmlns:svg="http://www.w3.org/2000/svg"
   xmlns="http://www.w3.org/2000/svg"
   xmlns:xlink="http://www.w3.org/1999/xlink"
   width="400"
   height="600"
   viewBox="0 0 105.83333 158.75001"
   version="1.1"
   id="svg8">
  <defs
     id="defs2">
    <linearGradient
       id="linearGradient872">
      <stop
         style="stop-color:#740fff;stop-opacity:1"
         offset="0"
         id="stop868" />
      <stop
         style="stop-color:#4600a5;stop-opacity:1"
         offset="1"
         id="stop870" />
    </linearGradient>
    <linearGradient
       id="linearGradient864">
      <stop
         style="stop-color:#ff6c9f;stop-opacity:1"
         offset="0"
         id="stop860" />
      <stop
         style="stop-color:#ff035a;stop-opacity:1"
         offset="1"
         id="stop862" />
    </linearGradient>
    <linearGradient
       xlink:href="#linearGradient864"
       id="linearGradient866"
       x1="0"
       y1="0"
       x2="105.83334"
       y2="158.75"
       gradientUnits="userSpaceOnUse" />
    <linearGradient
       xlink:href="#linearGradient872"
       id="linearGradient874"
       x1="3.0576296"
       y1="32.655743"
       x2="102.7757"
       y2="126.09426"
       gradientUnits="userSpaceOnUse" />
    <filter
       style="color-interpolation-filters:sRGB"
       id="filter1050"
       x="-0.047501074"
       width="1.0950021"
       y="-0.050693391"
       height="1.1013868">
      <feGaussianBlur
         stdDeviation="1.9736314"
         id="feGaussianBlur1052" />
    </filter>
  </defs>
  <metadata
     id="metadata5">
    <rdf:RDF>
      <cc:Work
         rdf:about="">
        <dc:format>image/svg+xml</dc:format>
        <dc:type
           rdf:resource="http://purl.org/dc/dcmitype/StillImage" />
        <dc:title></dc:title>
      </cc:Work>
    </rdf:RDF>
  </metadata>
  <g
     id="layer1">
    <rect
       style="fill:url(#linearGradient866);stroke-width:6.41501;stroke-linecap:round;stroke-linejoin:round;fill-opacity:1"
       id="rect858"
       width="106.90781"
       height="159.82718"
       x="0"
       y="0"
       ry="0" />
    <path
       style="fill:#000000;fill-opacity:1;stroke-width:0.12482;filter:url(#filter1050)"
       d="M 18.369993,128.00091 5.858,127.96851 6.1565487,127.17532 c 0.1642133,-0.43626 0.4764376,-1.433 0.6938392,-2.21498 0.8509932,-3.06088 1.3009283,-4.56679 1.65308,-5.53271 2.4675981,-6.76831 7.4159401,-10.49185 17.3232801,-13.03547 5.709787,-1.46593 8.88031,-3.07877 13.173813,-6.701461 1.844472,-1.556289 2.4456,-2.218665 2.984282,-3.288362 0.732339,-1.454212 0.98391,-2.735271 0.995146,-5.067562 0.0058,-1.130818 -0.06529,-2.482512 -0.163085,-3.116084 -0.167579,-1.085642 -0.191912,-1.139515 -0.817508,-1.809903 -1.621745,-1.737864 -2.615059,-3.21482 -3.822592,-5.683789 -2.060571,-4.213112 -3.41596,-9.255133 -4.328503,-16.101896 -0.302946,-2.272983 -0.296929,-6.941955 0.01147,-8.924694 0.976032,-6.274394 3.555629,-11.513881 7.594852,-15.426079 2.851595,-2.761921 6.074274,-4.496272 9.884976,-5.319805 1.845367,-0.398802 5.559529,-0.394649 7.439847,0.0083 7.630825,1.635346 13.543933,7.391619 16.229395,15.798933 0.907075,2.839767 1.247055,5.00853 1.331858,8.496028 0.05584,2.295782 0.02353,3.124704 -0.19714,5.055247 -0.566293,4.955153 -1.66524,9.719542 -3.095046,13.418245 -1.079475,2.792469 -3.013571,6.126913 -4.597434,7.926128 -0.805703,0.915246 -0.937135,1.173849 -1.305345,2.568268 -0.599769,2.271341 -0.579188,5.047873 0.05112,6.896789 0.700339,2.054301 1.462653,2.857456 5.91742,6.234407 1.923505,1.45811 2.928749,2.10438 4.479609,2.87987 2.131947,1.06609 3.633169,1.52574 9.644708,2.95305 7.569148,1.79714 12.252243,5.07885 14.717939,10.31374 0.56771,1.20531 1.01519,2.51723 2.42101,7.09801 0.30551,0.99544 0.70015,2.18904 0.87699,2.65244 l 0.32154,0.84254 -37.347055,-0.0307 c -20.540887,-0.0169 -42.977463,-0.0452 -49.859062,-0.063 z"
       id="path876" />
    <path
       style="fill:url(#linearGradient874);fill-opacity:1;stroke-width:0.12482"
       d="m 15.569623,126.00065 -12.5119933,-0.0324 0.2985487,-0.79319 c 0.1642133,-0.43626 0.4764376,-1.433 0.6938392,-2.21498 0.8509932,-3.06088 1.3009283,-4.56679 1.65308,-5.53271 2.4675981,-6.76831 7.4159404,-10.49185 17.3232804,-13.03547 5.709787,-1.46593 8.88031,-3.07877 13.173813,-6.701458 1.844472,-1.556289 2.4456,-2.218665 2.984282,-3.288362 0.732339,-1.454212 0.98391,-2.735271 0.995146,-5.067562 0.0058,-1.130818 -0.06529,-2.482512 -0.163085,-3.116084 -0.167579,-1.085642 -0.191912,-1.139515 -0.817508,-1.809903 -1.621745,-1.737864 -2.615059,-3.21482 -3.822592,-5.683789 -2.060571,-4.213112 -3.41596,-9.255133 -4.328503,-16.101896 -0.302946,-2.272983 -0.296929,-6.941955 0.01147,-8.924694 0.976032,-6.274394 3.555629,-11.513881 7.594852,-15.426079 2.851595,-2.761921 6.074274,-4.496272 9.884976,-5.319805 1.845367,-0.398802 5.559529,-0.394649 7.439847,0.0083 7.630825,1.635346 13.543933,7.391619 16.229395,15.798933 0.907075,2.839767 1.247055,5.00853 1.331858,8.496028 0.05584,2.295782 0.02353,3.124704 -0.19714,5.055247 -0.566293,4.955153 -1.66524,9.719542 -3.095046,13.418245 -1.079475,2.792469 -3.013571,6.126913 -4.597434,7.926128 -0.805703,0.915246 -0.937135,1.173849 -1.305345,2.568268 -0.599769,2.271341 -0.579188,5.047873 0.05112,6.896789 0.700339,2.054301 1.462653,2.857456 5.91742,6.234404 1.923505,1.45811 2.928749,2.10438 4.479609,2.87987 2.131947,1.06609 3.633169,1.52574 9.644708,2.95305 7.569148,1.79714 12.252243,5.07885 14.717943,10.31374 0.56771,1.20531 1.015186,2.51723 2.421006,7.09801 0.30551,0.99544 0.70015,2.18904 0.87699,2.65244 l 0.32154,0.84254 -37.347055,-0.0307 c -20.540887,-0.0169 -42.977463,-0.0452 -49.859062,-0.063 z"
       id="path854" />
  </g>
</svg>
