<?xml version="1.0" encoding="UTF-8" standalone="no"?>
<svg
   xmlns:dc="http://purl.org/dc/elements/1.1/"
   xmlns:cc="http://creativecommons.org/ns#"
   xmlns:rdf="http://www.w3.org/1999/02/22-rdf-syntax-ns#"
   xmlns:svg="http://www.w3.org/2000/svg"
   xmlns="http://www.w3.org/2000/svg"
   width="180"
   height="34"
   viewBox="0 0 47.624997 8.9958335"
   version="1.1"
   id="svg8">
  <defs
     id="defs2">
    <rect
       x="244.17262"
       y="124.73214"
       width="281.21429"
       height="143.63095"
       id="rect1485" />
    <rect
       x="243.0387"
       y="147.03275"
       width="198.81548"
       height="92.604164"
       id="rect1479" />
    <rect
       x="230.65359"
       y="149.9382"
       width="226.64456"
       height="89.000755"
       id="rect1440" />
    <rect
       x="541.2619"
       y="96.761902"
       width="492.88095"
       height="331.10715"
       id="rect1434" />
    <rect
       x="606.2738"
       y="117.92857"
       width="394.60715"
       height="211.66667"
       id="rect1428" />
    <filter
       style="color-interpolation-filters:sRGB"
       id="filter1218"
       x="-0.031521585"
       width="1.0630432"
       y="-0.031819627"
       height="1.0636393">
      <feGaussianBlur
         stdDeviation="3.4346406"
         id="feGaussianBlur1220" />
    </filter>
    <filter
       style="color-interpolation-filters:sRGB"
       id="filter1332"
       x="-0.033115894"
       width="1.0662318"
       y="-0.036108613"
       height="1.0722172">
      <feGaussianBlur
         stdDeviation="4.4481251"
         id="feGaussianBlur1334" />
    </filter>
    <filter
       style="color-interpolation-filters:sRGB"
       id="filter1414"
       x="-0.024905946"
       width="1.049812"
       y="-0.025141427"
       height="1.050283">
      <feGaussianBlur
         stdDeviation="3.5056955"
         id="feGaussianBlur1416" />
    </filter>
    <filter
       style="color-interpolation-filters:sRGB"
       id="filter1125"
       x="-0.072637983"
       width="1.145276"
       y="-0.051279526"
       height="1.1025591">
      <feGaussianBlur
         stdDeviation="0.69537729"
         id="feGaussianBlur1127" />
    </filter>
    <filter
       style="color-interpolation-filters:sRGB"
       id="filter1267"
       x="-0.069949113"
       width="1.1398982"
       y="-0.066394515"
       height="1.132789">
      <feGaussianBlur
         stdDeviation="0.68532587"
         id="feGaussianBlur1269" />
    </filter>
    <filter
       style="color-interpolation-filters:sRGB"
       id="filter1373"
       x="-0.056610491"
       width="1.113221"
       y="-0.049139582"
       height="1.0982792">
      <feGaussianBlur
         stdDeviation="0.4970788"
         id="feGaussianBlur1375" />
    </filter>
    <filter
       style="color-interpolation-filters:sRGB"
       id="filter1399"
       x="-0.040604267"
       width="1.0812085"
       y="-0.040752467"
       height="1.0815049">
      <feGaussianBlur
         stdDeviation="0.41870714"
         id="feGaussianBlur1401" />
    </filter>
    <filter
       style="color-interpolation-filters:sRGB"
       id="filter1477"
       x="-0.052611049"
       width="1.1052221"
       y="-0.052611224"
       height="1.1052225">
      <feGaussianBlur
         stdDeviation="0.52217431"
         id="feGaussianBlur1479" />
    </filter>
    <filter
       style="color-interpolation-filters:sRGB"
       id="filter1531"
       x="-0.06037778"
       width="1.1207556"
       y="-0.041294657"
       height="1.0825893">
      <feGaussianBlur
         stdDeviation="0.57046813"
         id="feGaussianBlur1533" />
    </filter>
    <filter
       style="color-interpolation-filters:sRGB"
       id="filter1593"
       x="-0.065605529"
       width="1.131211"
       y="-0.055477746"
       height="1.1109555">
      <feGaussianBlur
         stdDeviation="0.71773871"
         id="feGaussianBlur1595" />
    </filter>
    <filter
       style="color-interpolation-filters:sRGB"
       id="filter1723"
       x="-0.080616876"
       width="1.1612338"
       y="-0.08153826"
       height="1.1630765">
      <feGaussianBlur
         stdDeviation="0.78114129"
         id="feGaussianBlur1725" />
    </filter>
    <filter
       style="color-interpolation-filters:sRGB"
       id="filter1813"
       x="-0.11579356"
       width="1.2315871"
       y="-0.040597919"
       height="1.0811958">
      <feGaussianBlur
         stdDeviation="0.5813763"
         id="feGaussianBlur1815" />
    </filter>
    <filter
       style="color-interpolation-filters:sRGB"
       id="filter1927"
       x="-0.054848358"
       width="1.1096967"
       y="-0.032326616"
       height="1.0646532">
      <feGaussianBlur
         stdDeviation="0.44863123"
         id="feGaussianBlur1929" />
    </filter>
  </defs>
  <metadata
     id="metadata5">
    <rdf:RDF>
      <cc:Work
         rdf:about="">
        <dc:format>image/svg+xml</dc:format>
        <dc:type
           rdf:resource="http://purl.org/dc/dcmitype/StillImage" />
        <dc:title></dc:title>
      </cc:Work>
    </rdf:RDF>
  </metadata>
  <g
     id="layer1">
    <text
       xml:space="preserve"
       id="text1426"
       style="font-size:38.1px;line-height:1.25;font-family:sans-serif;-inkscape-font-specification:sans-serif;white-space:pre;shape-inside:url(#rect1428);" />
    <text
       xml:space="preserve"
       id="text1432"
       style="font-size:38.1px;line-height:1.25;font-family:sans-serif;-inkscape-font-specification:sans-serif;white-space:pre;shape-inside:url(#rect1434);" />
    <text
       xml:space="preserve"
       id="text1477"
       style="font-size:38.1px;line-height:1.25;font-family:sans-serif;-inkscape-font-specification:sans-serif;white-space:pre;shape-inside:url(#rect1479);" />
    <g
       id="g_bottom_heart">
      <path
         id="path1336"
         style="opacity:0.999;fill:#000000;fill-opacity:1;stroke:none;stroke-width:4.59938;stroke-linecap:round;stroke-linejoin:round;stroke-dasharray:4.59938, 4.59938;filter:url(#filter1414)"
         d="m -168.68468,57.585944 c -23.34748,-13.479671 -51.85965,-18.014095 -80.07852,-10.452865 -55.81358,14.955189 -88.95821,71.463301 -75.05833,127.297211 54.58409,203.70878 54.58409,203.70878 54.58409,203.70878 L -65.528438,323.55588 C -10.224814,307.67664 22.140232,250.71848 7.1850183,194.90484 -7.7701791,139.0913 -64.277943,105.94609 -120.11184,119.84594 c -7.85094,-27.342295 -25.7419,-49.078563 -48.57284,-62.259996 z"
         transform="matrix(0.02529065,0,0,0.02529065,8.8170596,-0.83519295)" />
      <path
         id="path842"
         style="opacity:0.999;fill:#be0000;fill-opacity:1;stroke:none;stroke-width:0.114219;stroke-linecap:round;stroke-linejoin:round;stroke-dasharray:0.114219, 0.114219"
         d="M 4.5557629,0.69122271 C 3.9759606,0.35647375 3.2679002,0.24386761 2.5671237,0.43164029 1.1810706,0.80303169 0.35796969,2.2063324 0.70315394,3.5928903 2.0586741,8.6517158 2.0586741,8.6517158 2.0586741,8.6517158 L 7.1175052,7.2962179 C 8.4908942,6.901879 9.2946353,5.4874018 8.9232433,4.1013474 8.5518516,2.7152954 7.1485595,1.8921801 5.7620019,2.2373636 5.5670348,1.5583555 5.1227375,1.0185654 4.5557629,0.69122271 Z" />
    </g>
    <g
       id="g_midle_heart">
      <path
         id="path1222"
         style="opacity:0.999;fill:#000000;fill-opacity:1;stroke:none;stroke-width:4.14722;stroke-linecap:round;stroke-linejoin:round;stroke-dasharray:4.14722, 4.14722;filter:url(#filter1332)"
         d="m -246.67233,82.61038 c -24.30901,0 -48.61814,9.313706 -67.24494,27.94052 -36.84166,36.84163 -37.24744,95.91121 -1.22074,133.24453 134.46525,134.46463 134.46525,134.46463 134.46525,134.46463 L -46.207532,243.79543 C -10.18071,206.46212 -10.586589,147.39257 -47.428254,110.5509 -84.269867,73.70928 -143.33947,73.302877 -180.67276,109.32959 -199.13063,91.517893 -222.90115,82.61038 -246.67233,82.61038 Z"
         transform="matrix(0.02529065,0,0,0.02529065,8.8170596,-0.83519295)" />
      <path
         id="path840"
         style="opacity:0.999;fill:#ff1493;fill-opacity:1;stroke:none;stroke-width:0.102918;stroke-linecap:round;stroke-linejoin:round;stroke-dasharray:0.102918, 0.102918"
         d="m 2.6098697,1.3242131 c -0.6032572,0 -1.2065173,0.2311308 -1.66876363,0.6933775 C 0.02683618,2.9318597 0.0167662,4.3977422 0.91081192,5.3242131 4.2477281,8.6611141 4.2477281,8.6611141 4.2477281,8.6611141 L 7.5846437,5.3242131 C 8.4786925,4.3977425 8.4686201,2.9318607 7.5543501,2.0175906 6.6400813,1.1033217 5.1741984,1.0932363 4.2477281,1.9872823 3.7896739,1.5452637 3.1997799,1.3242131 2.6098697,1.3242131 Z" />
    </g>
    <g
       id="g_top_heart">
      <path
         id="path844"
         style="opacity:0.999;fill:#000000;fill-opacity:1;stroke:none;stroke-width:3.56042;stroke-linecap:round;stroke-linejoin:round;stroke-dasharray:3.56042, 3.56042;filter:url(#filter1218)"
         d="m -270.60073,168.48246 c -18.07349,10.43473 -32.14913,27.79417 -38.00233,49.63864 -11.57698,43.2058 13.47718,87.2976 56.28813,99.58993 157.692987,42.25333 157.692987,42.25333 157.692987,42.25333 l 42.25403,-157.6928 c 10.7601,-43.22157 -14.89751,-86.96495 -58.103327,-98.54192 -43.20577,-11.576947 -87.29785,13.47675 -99.59017,56.2877 -21.36897,-5.3197 -42.8657,-1.73875 -60.53932,8.46512 z"
         transform="matrix(0.02588105,0,0,0.02588105,8.9237289,-0.97124209)" />
      <path
         id="rect10"
         style="opacity:0.999;fill:#431c53;fill-opacity:1;stroke:none;stroke-width:0.0900453;stroke-linecap:round;stroke-linejoin:round;stroke-dasharray:0.0900453, 0.0900453"
         d="M 1.9733912,3.425838 C 1.5163009,3.6897391 1.1603189,4.1287706 1.0122876,4.6812314 0.71949827,5.7739342 1.3531343,6.8890445 2.435851,7.1999255 6.4240092,8.2685397 6.4240092,8.2685397 6.4240092,8.2685397 L 7.492641,4.2803863 C 7.764771,3.1872847 7.1158733,2.0809862 6.0231701,1.7881971 4.9304681,1.4954086 3.8153508,2.1290328 3.50447,3.2117496 2.9640349,3.0772109 2.4203686,3.1677755 1.9733912,3.425838 Z" />
    </g>
    <g
       id="g1965"
       transform="matrix(0.19904582,0,0,0.19904582,-35.467246,-24.394616)">
      <g
         id="g1537"
         transform="translate(-75.170846)">
        <path
           d="m 412.0043,130.00123 q 0.34357,-0.6442 1.15956,-0.90189 0.81599,-0.25768 2.14735,-0.25768 1.3743,0 2.19029,0.25768 0.81599,0.25769 1.11661,0.90189 0.34358,0.6442 0.38653,1.15956 0.0859,0.47242 0.0859,1.4602 v 25.63927 q 0,0.98778 -0.0859,1.50314 -0.043,0.47242 -0.38653,1.07367 -0.6442,1.15957 -3.65048,1.15957 -2.96333,0 -3.30691,-2.1044 -1.80376,2.06145 -5.02478,2.06145 -3.86522,0 -7.04328,-3.34985 -3.17807,-3.39281 -3.17807,-7.85928 0,-4.50942 3.17807,-7.90222 3.22101,-3.3928 7.04328,-3.3928 3.17807,0 4.93889,2.14734 v -9.01884 q 0,-0.98778 0.0429,-1.46019 0.0859,-0.51537 0.38652,-1.11662 z m -6.95739,23.32014 q 1.11662,1.15957 2.70565,1.15957 1.58903,0 2.61976,-1.15957 1.07367,-1.15956 1.07367,-2.53386 0,-1.41725 -1.03072,-2.61976 -0.98778,-1.20251 -2.70566,-1.20251 -1.71787,0 -2.7486,1.20251 -1.03072,1.15956 -1.03072,2.57681 0,1.41725 1.11662,2.57681 z"
           style="font-style:normal;font-variant:normal;font-weight:normal;font-stretch:normal;font-size:38.1px;line-height:1.25;font-family:'Fredoka One';-inkscape-font-specification:'Fredoka One';white-space:pre;fill:#000000;stroke:none;stroke-width:2.70531;stroke-miterlimit:4;stroke-dasharray:none;stroke-opacity:1;filter:url(#filter1531)"
           id="path1485"
           transform="matrix(1.0589324,0,0,1,-24.163463,0)" />
        <path
           d="m 411.52446,131.74125 q 0.3048,-0.5715 1.0287,-0.8001 0.7239,-0.2286 1.905,-0.2286 1.2192,0 1.9431,0.2286 0.7239,0.2286 0.9906,0.8001 0.3048,0.5715 0.3429,1.0287 0.0762,0.4191 0.0762,1.2954 v 22.7457 q 0,0.8763 -0.0762,1.3335 -0.0381,0.4191 -0.3429,0.9525 -0.5715,1.0287 -3.2385,1.0287 -2.6289,0 -2.9337,-1.8669 -1.6002,1.8288 -4.4577,1.8288 -3.429,0 -6.2484,-2.9718 -2.8194,-3.0099 -2.8194,-6.9723 0,-4.0005 2.8194,-7.0104 2.8575,-3.0099 6.2484,-3.0099 2.8194,0 4.3815,1.905 v -8.001 q 0,-0.8763 0.0381,-1.2954 0.0762,-0.4572 0.3429,-0.9906 z m -6.1722,20.6883 q 0.9906,1.0287 2.4003,1.0287 1.4097,0 2.3241,-1.0287 0.9525,-1.0287 0.9525,-2.2479 0,-1.2573 -0.9144,-2.3241 -0.8763,-1.0668 -2.4003,-1.0668 -1.524,0 -2.4384,1.0668 -0.9144,1.0287 -0.9144,2.286 0,1.2573 0.9906,2.286 z"
           style="font-style:normal;font-variant:normal;font-weight:normal;font-stretch:normal;font-size:38.1px;line-height:1.25;font-family:'Fredoka One';-inkscape-font-specification:'Fredoka One';white-space:pre;fill:#ffffff;stroke:#be0000;stroke-width:2.4;stroke-miterlimit:4;stroke-dasharray:none;stroke-opacity:1"
           id="path43" />
      </g>
      <g
         id="g1483"
         transform="translate(-76.171816)">
        <path
           d="m 389.78896,138.19527 q 4.52858,0 7.51745,3.48701 3.03415,3.44173 3.03415,8.42317 v 7.97031 q 0,1.04158 -0.0906,1.58501 -0.0453,0.49814 -0.36229,1.13214 -0.634,1.22272 -3.53229,1.22272 -3.2153,0 -3.71345,-1.67558 -0.27171,-0.76986 -0.27171,-2.30957 v -7.97032 q 0,-1.85672 -1.08686,-2.89829 -1.04158,-1.04158 -2.85301,-1.04158 -1.76615,0 -2.89829,1.08687 -1.08687,1.08686 -1.08687,2.853 v 8.0156 q 0,1.04158 -0.0906,1.58501 -0.0453,0.49814 -0.40757,1.13214 -0.58872,1.22272 -3.48701,1.22272 -2.85301,0 -3.48701,-1.22272 -0.317,-0.67929 -0.40758,-1.17743 -0.0453,-0.54343 -0.0453,-1.585 v -16.0312 q 0,-0.99629 0.0453,-1.49443 0.0906,-0.54343 0.45286,-1.17743 0.63401,-1.13215 3.48701,-1.13215 2.76244,0 3.39644,1.04157 0.45286,0.76986 0.45286,1.85672 0.18115,-0.317 0.81515,-0.90571 0.634,-0.58872 1.22272,-0.95101 1.53972,-1.04157 3.39644,-1.04157 z"
           style="font-style:normal;font-variant:normal;font-weight:normal;font-stretch:normal;font-size:38.1px;line-height:1.25;font-family:'Fredoka One';-inkscape-font-specification:'Fredoka One';white-space:pre;fill:#000000;stroke:none;stroke-width:2.73379;stroke-miterlimit:4;stroke-dasharray:none;stroke-opacity:1;filter:url(#filter1477)"
           id="path1411" />
        <path
           d="m 389.57338,140.08515 q 3.81,0 6.3246,2.9337 2.5527,2.8956 2.5527,7.0866 v 6.7056 q 0,0.8763 -0.0762,1.3335 -0.0381,0.4191 -0.3048,0.9525 -0.5334,1.0287 -2.9718,1.0287 -2.7051,0 -3.1242,-1.4097 -0.2286,-0.6477 -0.2286,-1.9431 v -6.7056 q 0,-1.5621 -0.9144,-2.4384 -0.8763,-0.8763 -2.4003,-0.8763 -1.4859,0 -2.4384,0.9144 -0.9144,0.9144 -0.9144,2.4003 v 6.7437 q 0,0.8763 -0.0762,1.3335 -0.0381,0.4191 -0.3429,0.9525 -0.4953,1.0287 -2.9337,1.0287 -2.4003,0 -2.9337,-1.0287 -0.2667,-0.5715 -0.3429,-0.9906 -0.0381,-0.4572 -0.0381,-1.3335 v -13.4874 q 0,-0.8382 0.0381,-1.2573 0.0762,-0.4572 0.381,-0.9906 0.5334,-0.9525 2.9337,-0.9525 2.3241,0 2.8575,0.8763 0.381,0.6477 0.381,1.5621 0.1524,-0.2667 0.6858,-0.762 0.5334,-0.4953 1.0287,-0.8001 1.2954,-0.8763 2.8575,-0.8763 z"
           style="font-style:normal;font-variant:normal;font-weight:normal;font-stretch:normal;font-size:38.1px;line-height:1.25;font-family:'Fredoka One';-inkscape-font-specification:'Fredoka One';white-space:pre;fill:#ffffff;stroke:#ff1493;stroke-width:2.3;stroke-miterlimit:4;stroke-dasharray:none;stroke-opacity:1"
           id="path41" />
      </g>
      <g
         id="g1409"
         transform="translate(-55.057523)">
        <path
           d="m 334.18305,150.15734 q 0,-5.39968 3.77978,-8.90948 3.77978,-3.50979 8.6395,-3.50979 4.85971,0 8.5945,3.50979 3.73478,3.4648 3.73478,8.86449 0,3.73478 -1.93489,6.65961 -1.93489,2.87983 -4.72472,4.27475 -2.74484,1.34992 -5.71467,1.34992 -2.96983,0 -5.75966,-1.43992 -2.78984,-1.48491 -4.72473,-4.31974 -1.88989,-2.87984 -1.88989,-6.47963 z m 9.40445,3.23982 q 1.43992,1.07993 2.92483,1.07993 1.48492,0 2.96983,-1.12493 1.48491,-1.12494 1.48491,-3.32981 0,-2.20487 -1.39492,-3.28481 -1.39491,-1.07993 -3.01482,-1.07993 -1.61991,0 -3.01482,1.12493 -1.39492,1.12494 -1.39492,3.32981 0,2.15987 1.43991,3.28481 z"
           style="font-style:normal;font-variant:normal;font-weight:normal;font-stretch:normal;font-size:38.1px;line-height:1.25;font-family:'Fredoka One';-inkscape-font-specification:'Fredoka One';white-space:pre;fill:#000000;fill-opacity:1;stroke:none;stroke-width:2.83448;stroke-miterlimit:4;stroke-dasharray:none;stroke-opacity:1;filter:url(#filter1399)"
           id="path1377" />
        <path
           d="m 336.07983,150.14355 q 0,-4.572 3.2004,-7.5438 3.2004,-2.9718 7.3152,-2.9718 4.1148,0 7.2771,2.9718 3.1623,2.9337 3.1623,7.5057 0,3.1623 -1.6383,5.6388 -1.6383,2.4384 -4.0005,3.6195 -2.3241,1.143 -4.8387,1.143 -2.5146,0 -4.8768,-1.2192 -2.3622,-1.2573 -4.0005,-3.6576 -1.6002,-2.4384 -1.6002,-5.4864 z m 7.9629,2.7432 q 1.2192,0.9144 2.4765,0.9144 1.2573,0 2.5146,-0.9525 1.2573,-0.9525 1.2573,-2.8194 0,-1.8669 -1.1811,-2.7813 -1.1811,-0.9144 -2.5527,-0.9144 -1.3716,0 -2.5527,0.9525 -1.1811,0.9525 -1.1811,2.8194 0,1.8288 1.2192,2.7813 z"
           style="font-style:normal;font-variant:normal;font-weight:normal;font-stretch:normal;font-size:38.1px;line-height:1.25;font-family:'Fredoka One';-inkscape-font-specification:'Fredoka One';white-space:pre;fill:#ffffff;fill-opacity:1;stroke:#431c53;stroke-width:2.4;stroke-miterlimit:4;stroke-dasharray:none;stroke-opacity:1"
           id="path39" />
      </g>
      <g
         id="g1405"
         transform="translate(-24.321527)">
        <path
           d="m 295.65003,150.15058 q 0,1.89527 1.26352,2.97828 1.26351,1.03789 2.66241,1.03789 1.44402,0 2.66241,-0.81226 1.26351,-0.85738 2.03065,-0.85738 1.35376,0 3.29416,2.39165 1.03789,1.30864 1.03789,2.34653 0,1.71477 -2.4819,3.20392 -2.57216,1.80502 -6.31759,1.80502 -4.19667,0 -8.07747,-3.02341 -1.85015,-1.44402 -3.02342,-3.83568 -1.17326,-2.43678 -1.17326,-5.32482 0,-2.93316 1.17326,-5.27969 1.17327,-2.39165 3.02342,-3.83567 3.74542,-2.97829 7.98722,-2.97829 1.71478,0 3.3393,0.49638 1.62452,0.45126 2.39165,0.90251 l 0.72201,0.45126 q 0.81226,0.5415 1.26352,0.85738 1.17326,0.90252 1.17326,2.07578 0,1.12814 -0.94763,2.57216 -1.62453,2.48191 -3.11367,2.48191 -0.85739,0 -2.43678,-0.99277 -0.81226,-0.76713 -2.34653,-0.76713 -1.48914,0 -2.79779,1.08301 -1.30864,1.08302 -1.30864,3.02342 z"
           style="font-style:normal;font-variant:normal;font-weight:normal;font-stretch:normal;font-size:38.1px;line-height:1.25;font-family:'Fredoka One';-inkscape-font-specification:'Fredoka One';white-space:pre;fill:#000000;fill-opacity:1;stroke:none;stroke-width:2.961;stroke-miterlimit:4;stroke-dasharray:none;stroke-opacity:1;filter:url(#filter1373)"
           id="path1275" />
        <path
           d="m 296.0259,150.14355 q 0,1.6002 1.0668,2.5146 1.0668,0.8763 2.2479,0.8763 1.2192,0 2.2479,-0.6858 1.0668,-0.7239 1.7145,-0.7239 1.143,0 2.7813,2.0193 0.8763,1.1049 0.8763,1.9812 0,1.4478 -2.0955,2.7051 -2.1717,1.524 -5.334,1.524 -3.5433,0 -6.8199,-2.5527 -1.5621,-1.2192 -2.5527,-3.2385 -0.9906,-2.0574 -0.9906,-4.4958 0,-2.4765 0.9906,-4.4577 0.9906,-2.0193 2.5527,-3.2385 3.1623,-2.5146 6.7437,-2.5146 1.4478,0 2.8194,0.4191 1.3716,0.381 2.0193,0.762 l 0.6096,0.381 q 0.6858,0.4572 1.0668,0.7239 0.9906,0.762 0.9906,1.7526 0,0.9525 -0.8001,2.1717 -1.3716,2.0955 -2.6289,2.0955 -0.7239,0 -2.0574,-0.8382 -0.6858,-0.6477 -1.9812,-0.6477 -1.2573,0 -2.3622,0.9144 -1.1049,0.9144 -1.1049,2.5527 z"
           style="font-style:normal;font-variant:normal;font-weight:normal;font-stretch:normal;font-size:38.1px;line-height:1.25;font-family:'Fredoka One';-inkscape-font-specification:'Fredoka One';white-space:pre;fill:#ffffff;fill-opacity:1;stroke:#be0000;stroke-width:2.5;stroke-miterlimit:4;stroke-dasharray:none;stroke-opacity:1"
           id="path37" />
      </g>
      <g
         id="g1273"
         transform="translate(-14.432554)">
        <path
           d="m 282.06419,147.30765 q 0,2.74255 -1.39375,4.09135 -1.3488,1.30383 -3.01231,1.30383 h -10.65548 q 0,1.25887 1.48368,2.11311 1.48367,0.85424 2.96735,0.85424 2.60767,0 4.09134,-0.53952 l 0.49456,-0.17984 q 1.07903,-0.49456 1.79839,-0.49456 1.43871,0 2.47279,2.02319 0.58448,1.21392 0.58448,2.06816 0,4.00142 -9.57644,4.00142 -3.32703,0 -5.9347,-1.12399 -2.56271,-1.16896 -4.00142,-3.05727 -2.83247,-3.64175 -2.83247,-8.13773 0,-5.66494 3.64174,-9.03692 3.68671,-3.41695 9.17181,-3.41695 6.24941,0 9.1718,4.40606 1.52863,2.33791 1.52863,5.12542 z m -9.48652,1.30384 q 1.70847,0 1.70847,-1.43872 0,-1.03407 -0.80927,-1.66351 -0.76432,-0.62944 -2.24799,-0.62944 -1.43872,0 -2.87743,1.21392 -1.43872,1.16895 -1.43872,2.51775 z"
           style="font-style:normal;font-variant:normal;font-weight:normal;font-stretch:normal;font-size:38.1px;line-height:1.25;font-family:'Fredoka One';-inkscape-font-specification:'Fredoka One';white-space:pre;fill:#000000;stroke:none;stroke-width:2.59611;stroke-miterlimit:4;stroke-dasharray:none;stroke-opacity:1;filter:url(#filter1267)"
           id="path1133" />
        <path
           d="m 280.27035,147.74325 q 0,2.3241 -1.1811,3.4671 -1.143,1.1049 -2.5527,1.1049 h -9.0297 q 0,1.0668 1.2573,1.7907 1.2573,0.7239 2.5146,0.7239 2.2098,0 3.4671,-0.4572 l 0.4191,-0.1524 q 0.9144,-0.4191 1.524,-0.4191 1.2192,0 2.0955,1.7145 0.4953,1.0287 0.4953,1.7526 0,3.3909 -8.1153,3.3909 -2.8194,0 -5.0292,-0.9525 -2.1717,-0.9906 -3.3909,-2.5908 -2.4003,-3.0861 -2.4003,-6.8961 0,-4.8006 3.0861,-7.6581 3.1242,-2.8956 7.7724,-2.8956 5.2959,0 7.7724,3.7338 1.2954,1.9812 1.2954,4.3434 z m -8.0391,1.1049 q 1.4478,0 1.4478,-1.2192 0,-0.8763 -0.6858,-1.4097 -0.6477,-0.5334 -1.905,-0.5334 -1.2192,0 -2.4384,1.0287 -1.2192,0.9906 -1.2192,2.1336 z"
           style="font-style:normal;font-variant:normal;font-weight:normal;font-stretch:normal;font-size:38.1px;line-height:1.25;font-family:'Fredoka One';-inkscape-font-specification:'Fredoka One';white-space:pre;fill:#ffffff;stroke:#ff1493;stroke-width:2.2;stroke-miterlimit:4;stroke-dasharray:none;stroke-opacity:1"
           id="path35" />
      </g>
      <g
         id="g1131">
        <path
           d="m 226.5791,157.56372 q -1.12076,-1.3794 -1.12076,-2.45706 0,-1.12077 1.85357,-2.93123 1.07766,-1.03455 2.28463,-1.03455 1.20698,0 3.3623,2.15531 0.60348,0.73281 1.72425,1.42251 1.12076,0.6466 2.0691,0.6466 4.00889,0 4.00889,-3.27608 0,-0.99145 -1.12077,-1.63804 -1.07765,-0.6897 -2.71569,-0.99145 -1.63804,-0.30174 -3.53472,-0.94834 -1.89668,-0.6897 -3.53472,-1.59493 -1.63804,-0.90523 -2.7588,-2.84502 -1.07766,-1.98289 -1.07766,-4.74169 0,-3.79335 2.80191,-6.59526 2.84502,-2.84502 7.71603,-2.84502 2.58638,0 4.69859,0.6897 2.15531,0.64659 2.97433,1.3363 l 1.07766,0.81902 q 1.3363,1.25008 1.3363,2.1122 0,0.86213 -1.03456,2.37085 -1.46561,2.15532 -3.01744,2.15532 -0.90523,0 -2.24152,-0.86213 -0.12932,-0.0862 -0.51728,-0.43106 -0.34485,-0.34485 -0.6466,-0.56038 -0.90523,-0.56039 -2.32774,-0.56039 -1.3794,0 -2.32774,0.6897 -0.90523,0.6466 -0.90523,1.85358 0,1.16387 1.07766,1.89667 1.12076,0.73281 2.7588,0.99145 1.63804,0.25864 3.57783,0.81902 1.93978,0.51727 3.57782,1.29319 1.63804,0.77591 2.7157,2.71569 1.12076,1.89668 1.12076,4.69859 0,2.80191 -1.12076,4.95723 -1.12077,2.11221 -2.93123,3.27608 -3.49161,2.28463 -7.45739,2.28463 -2.026,0 -3.83646,-0.47417 -1.81047,-0.51727 -2.93123,-1.25008 -2.28464,-1.3794 -3.18987,-2.67259 z"
           style="font-style:normal;font-variant:normal;font-weight:normal;font-stretch:normal;font-size:38.1px;line-height:1.25;font-family:'Fredoka One';-inkscape-font-specification:'Fredoka One';white-space:pre;fill:#000000;stroke:none;stroke-width:2.60222;stroke-miterlimit:4;stroke-dasharray:none;stroke-opacity:1;filter:url(#filter1125)"
           id="path971"
           transform="matrix(1.0232277,0,0,1.0232277,-5.5037207,-3.3950132)" />
        <path
           d="m 227.78312,156.23955 q -0.9906,-1.2192 -0.9906,-2.1717 0,-0.9906 1.6383,-2.5908 0.9525,-0.9144 2.0193,-0.9144 1.0668,0 2.9718,1.905 0.5334,0.6477 1.524,1.2573 0.9906,0.5715 1.8288,0.5715 3.5433,0 3.5433,-2.8956 0,-0.8763 -0.9906,-1.4478 -0.9525,-0.6096 -2.4003,-0.8763 -1.4478,-0.2667 -3.1242,-0.8382 -1.6764,-0.6096 -3.1242,-1.4097 -1.4478,-0.8001 -2.4384,-2.5146 -0.9525,-1.7526 -0.9525,-4.191 0,-3.3528 2.4765,-5.8293 2.5146,-2.5146 6.8199,-2.5146 2.286,0 4.1529,0.6096 1.905,0.5715 2.6289,1.1811 l 0.9525,0.7239 q 1.1811,1.1049 1.1811,1.8669 0,0.762 -0.9144,2.0955 -1.2954,1.905 -2.667,1.905 -0.8001,0 -1.9812,-0.762 -0.1143,-0.0762 -0.4572,-0.381 -0.3048,-0.3048 -0.5715,-0.4953 -0.8001,-0.4953 -2.0574,-0.4953 -1.2192,0 -2.0574,0.6096 -0.8001,0.5715 -0.8001,1.6383 0,1.0287 0.9525,1.6764 0.9906,0.6477 2.4384,0.8763 1.4478,0.2286 3.1623,0.7239 1.7145,0.4572 3.1623,1.143 1.4478,0.6858 2.4003,2.4003 0.9906,1.6764 0.9906,4.1529 0,2.4765 -0.9906,4.3815 -0.9906,1.8669 -2.5908,2.8956 -3.0861,2.0193 -6.5913,2.0193 -1.7907,0 -3.3909,-0.4191 -1.6002,-0.4572 -2.5908,-1.1049 -2.0193,-1.2192 -2.8194,-2.3622 z"
           style="font-style:normal;font-variant:normal;font-weight:normal;font-stretch:normal;font-size:38.1px;line-height:1.25;font-family:'Fredoka One';-inkscape-font-specification:'Fredoka One';white-space:pre;fill:#ffffff;stroke:#431c53;stroke-width:2.3;stroke-miterlimit:4;stroke-dasharray:none;stroke-opacity:1"
           id="path33" />
      </g>
      <g
         id="g1933"
         transform="translate(-173.6555)">
        <path
           d="m 586.18146,139.45301 q 3.22507,0 3.78594,1.63103 0.28044,0.81552 0.28044,2.14609 0,1.33058 -0.32717,2.1461 -0.28045,0.77259 -0.93482,1.11597 -0.98154,0.51506 -2.85113,0.51506 l -2.99136,-0.17169 v 11.50306 q 0,1.63103 -0.4674,2.44655 -0.42066,0.77259 -1.35546,1.03013 -0.88807,0.25753 -2.33701,0.25753 -1.44894,0 -2.33699,-0.25753 -0.84132,-0.30046 -1.21525,-0.90136 -0.37392,-0.64383 -0.4674,-1.15889 -0.0467,-0.51507 -0.0467,-1.50227 v -11.3743 h -1.68264 q -1.21525,-0.0858 -1.72939,-0.51506 -0.88804,-0.81551 -0.88804,-3.1333 0,-3.51959 2.75765,-3.51959 h 1.54242 v -2.27486 q 0,-3.30498 2.57069,-5.96614 2.5707,-2.70408 7.43168,-2.70408 1.07501,0 1.58915,0.0859 0.56088,0.0429 1.26198,0.38629 1.26198,0.55799 1.26198,3.30499 0,2.06025 -0.79458,2.96161 -0.65436,0.68675 -2.05656,0.77259 -0.42066,0 -1.30871,0 -1.72939,0 -1.72939,1.07305 v 2.3607 z"
           style="font-style:normal;font-variant:normal;font-weight:normal;font-stretch:normal;font-size:38.1px;line-height:1.25;font-family:'Fredoka One';-inkscape-font-specification:'Fredoka One';white-space:pre;fill:#000000;stroke:none;stroke-width:2.82143;stroke-miterlimit:4;stroke-dasharray:none;stroke-opacity:1;filter:url(#filter1927)"
           id="path1825" />
        <path
           d="m 585.11874,140.12325 q 2.6289,0 3.0861,1.4478 0.2286,0.7239 0.2286,1.905 0,1.1811 -0.2667,1.905 -0.2286,0.6858 -0.762,0.9906 -0.8001,0.4572 -2.3241,0.4572 l -2.4384,-0.1524 v 10.2108 q 0,1.4478 -0.381,2.1717 -0.3429,0.6858 -1.1049,0.9144 -0.7239,0.2286 -1.905,0.2286 -1.1811,0 -1.905,-0.2286 -0.6858,-0.2667 -0.9906,-0.8001 -0.3048,-0.5715 -0.381,-1.0287 -0.0381,-0.4572 -0.0381,-1.3335 v -10.0965 h -1.3716 q -0.9906,-0.0762 -1.4097,-0.4572 -0.72389,-0.7239 -0.72389,-2.7813 0,-3.1242 2.24789,-3.1242 h 1.2573 v -2.0193 q 0,-2.9337 2.0955,-5.2959 2.0955,-2.4003 6.0579,-2.4003 0.8763,0 1.2954,0.0762 0.4572,0.0381 1.0287,0.3429 1.0287,0.4953 1.0287,2.9337 0,1.8288 -0.6477,2.6289 -0.5334,0.6096 -1.6764,0.6858 -0.3429,0 -1.0668,0 -1.4097,0 -1.4097,0.9525 v 2.0955 z"
           style="font-style:normal;font-variant:normal;font-weight:normal;font-stretch:normal;font-size:38.1px;line-height:1.25;font-family:'Fredoka One';-inkscape-font-specification:'Fredoka One';white-space:pre;fill:#ffffff;stroke:#431c53;stroke-width:2.4;stroke-miterlimit:4;stroke-dasharray:none;stroke-opacity:1"
           id="path51" />
      </g>
      <g
         id="g1823"
         transform="translate(-144.89807)">
        <path
           d="m 535.33356,132.12943 q 0,-1.01893 0.0443,-1.50624 0.0886,-0.53162 0.39872,-1.19613 0.62021,-1.19614 3.45548,-1.19614 2.70237,0 3.36689,1.19614 0.35441,0.66451 0.39871,1.19613 0.0886,0.53161 0.0886,1.55054 v 20.51143 q 0,1.59484 0.26581,2.03785 0.26581,0.39871 1.15183,0.39871 0.93033,0 1.24043,0.0886 0.31011,0.0443 0.75312,0.35441 0.88603,0.57592 0.88603,3.14538 0,2.79098 -0.88603,3.41119 -1.15183,0.79742 -5.49334,0.26581 -3.41119,-0.44301 -4.43011,-2.25936 -1.24044,-2.17075 -1.24044,-6.91098 z"
           style="font-style:normal;font-variant:normal;font-weight:normal;font-stretch:normal;font-size:38.1px;line-height:1.25;font-family:'Fredoka One';-inkscape-font-specification:'Fredoka One';white-space:pre;fill:#000000;stroke:none;stroke-width:2.79062;stroke-miterlimit:4;stroke-dasharray:none;stroke-opacity:1;filter:url(#filter1813)"
           id="path1727"
           transform="matrix(1.0887208,0,0,1,-48.564281,0)" />
        <path
           d="m 536.17692,133.98915 q 0,-0.8763 0.0381,-1.2954 0.0762,-0.4572 0.3429,-1.0287 0.5334,-1.0287 2.9718,-1.0287 2.3241,0 2.8956,1.0287 0.3048,0.5715 0.3429,1.0287 0.0762,0.4572 0.0762,1.3335 v 17.6403 q 0,1.3716 0.2286,1.7526 0.2286,0.3429 0.9906,0.3429 0.8001,0 1.0668,0.0762 0.2667,0.0381 0.6477,0.3048 0.762,0.4953 0.762,2.7051 0,2.4003 -0.762,2.9337 -0.9906,0.6858 -4.7244,0.2286 -2.9337,-0.381 -3.81,-1.9431 -1.0668,-1.8669 -1.0668,-5.9436 z"
           style="font-style:normal;font-variant:normal;font-weight:normal;font-stretch:normal;font-size:38.1px;line-height:1.25;font-family:'Fredoka One';-inkscape-font-specification:'Fredoka One';white-space:pre;fill:#ffffff;stroke:#be0000;stroke-width:2.4;stroke-miterlimit:4;stroke-dasharray:none;stroke-opacity:1"
           id="path49" />
      </g>
      <g
         id="g1819"
         transform="translate(-122.23158)">
        <path
           d="m 506.04292,141.04282 q 0.26277,-2.45249 3.45977,-2.45249 1.70799,0 2.54009,0.26277 0.83209,0.26276 1.13865,0.91968 0.35036,0.65692 0.39416,1.18245 0.0876,0.48175 0.0876,1.48902 v 15.32809 q 0,1.00728 -0.0876,1.53281 -0.0438,0.48174 -0.35036,1.13866 -0.61312,1.13866 -3.02183,1.13866 -2.3649,0 -3.197,-0.56933 -0.7883,-0.61312 -0.91968,-1.75178 -1.6204,2.32111 -5.43053,2.32111 -3.76633,0 -7.00713,-3.45977 -3.24079,-3.45977 -3.24079,-8.0144 0,-4.59843 3.24079,-8.01441 3.28459,-3.45977 7.18231,-3.45977 1.48901,0 2.71526,0.52554 1.22625,0.52553 1.70799,1.00727 0.48174,0.43795 0.7883,0.87589 z m -7.97061,9.10927 q 0,1.44522 1.13866,2.62768 1.13866,1.13865 2.75906,1.13865 1.6204,0 2.67147,-1.18245 1.09486,-1.18245 1.09486,-2.58388 0,-1.44522 -1.05107,-2.67147 -1.00727,-1.22624 -2.75906,-1.22624 -1.70798,0 -2.80285,1.22624 -1.05107,1.22625 -1.05107,2.67147 z"
           style="font-style:normal;font-variant:normal;font-weight:normal;font-stretch:normal;font-size:38.1px;line-height:1.25;font-family:'Fredoka One';-inkscape-font-specification:'Fredoka One';white-space:pre;fill:#000000;stroke:none;stroke-width:2.75871;stroke-miterlimit:4;stroke-dasharray:none;stroke-opacity:1;filter:url(#filter1723)"
           id="path1601"
           transform="matrix(1.0325072,0,0,1.0325072,-16.319777,-4.8788889)" />
        <path
           d="m 505.52187,142.21875 q 0.2286,-2.1336 3.0099,-2.1336 1.4859,0 2.2098,0.2286 0.7239,0.2286 0.9906,0.8001 0.3048,0.5715 0.3429,1.0287 0.0762,0.4191 0.0762,1.2954 v 13.335 q 0,0.8763 -0.0762,1.3335 -0.0381,0.4191 -0.3048,0.9906 -0.5334,0.9906 -2.6289,0.9906 -2.0574,0 -2.7813,-0.4953 -0.6858,-0.5334 -0.8001,-1.524 -1.4097,2.0193 -4.7244,2.0193 -3.2766,0 -6.096,-3.0099 -2.8194,-3.0099 -2.8194,-6.9723 0,-4.0005 2.8194,-6.9723 2.8575,-3.0099 6.2484,-3.0099 1.2954,0 2.3622,0.4572 1.0668,0.4572 1.4859,0.8763 0.4191,0.381 0.6858,0.762 z m -6.9342,7.9248 q 0,1.2573 0.9906,2.286 0.9906,0.9906 2.4003,0.9906 1.4097,0 2.3241,-1.0287 0.9525,-1.0287 0.9525,-2.2479 0,-1.2573 -0.9144,-2.3241 -0.8763,-1.0668 -2.4003,-1.0668 -1.4859,0 -2.4384,1.0668 -0.9144,1.0668 -0.9144,2.3241 z"
           style="font-style:normal;font-variant:normal;font-weight:normal;font-stretch:normal;font-size:38.1px;line-height:1.25;font-family:'Fredoka One';-inkscape-font-specification:'Fredoka One';white-space:pre;fill:#ffffff;stroke:#ff1493;stroke-width:2.4;stroke-miterlimit:4;stroke-dasharray:none;stroke-opacity:1"
           id="path47" />
      </g>
      <g
         id="g1599"
         transform="translate(-103.70058)">
        <path
           d="m 468.05269,131.80153 q 0.33934,-0.63627 1.14528,-0.89077 0.80594,-0.25451 2.03605,-0.25451 1.23012,0 1.95122,0.21209 0.7211,0.21209 1.10286,0.50901 0.38176,0.29693 0.59385,0.84836 0.21209,0.7211 0.21209,2.20572 v 23.54186 q 0,0.97561 -0.0848,1.48462 -0.0424,0.4666 -0.38176,1.10286 -0.59385,1.14528 -3.30858,1.14528 -2.96925,0 -3.47826,-1.56946 -0.25451,-0.7211 -0.25451,-2.20572 v -8.61081 h -11.2407 v 8.65323 q 0,0.97561 -0.0848,1.48462 -0.0424,0.4666 -0.38176,1.10286 -0.59385,1.14528 -3.30858,1.14528 -2.96925,0 -3.47826,-1.56946 -0.25451,-0.7211 -0.25451,-2.20572 v -23.54186 q 0,-0.97561 0.0424,-1.4422 0.0848,-0.50902 0.42418,-1.14528 0.59385,-1.14528 3.30858,-1.14528 2.96925,0 3.52068,1.56946 0.21209,0.7211 0.21209,2.20572 v 8.65322 h 11.2407 v -8.69564 q 0,-0.97561 0.0424,-1.4422 0.0848,-0.50902 0.42418,-1.14528 z"
           style="font-style:normal;font-variant:normal;font-weight:normal;font-stretch:normal;font-size:38.1px;line-height:1.25;font-family:'Fredoka One';-inkscape-font-specification:'Fredoka One';white-space:pre;fill:#000000;stroke:none;stroke-width:2.67199;stroke-miterlimit:4;stroke-dasharray:none;stroke-opacity:1;filter:url(#filter1593)"
           id="path1539"
           transform="matrix(1.0254479,0,0,1,-11.95652,0)" />
        <path
           d="m 467.43309,133.26525 q 0.3048,-0.5715 1.0287,-0.8001 0.7239,-0.2286 1.8288,-0.2286 1.1049,0 1.7526,0.1905 0.6477,0.1905 0.9906,0.4572 0.3429,0.2667 0.5334,0.762 0.1905,0.6477 0.1905,1.9812 v 21.1455 q 0,0.8763 -0.0762,1.3335 -0.0381,0.4191 -0.3429,0.9906 -0.5334,1.0287 -2.9718,1.0287 -2.667,0 -3.1242,-1.4097 -0.2286,-0.6477 -0.2286,-1.9812 v -7.7343 h -10.0965 v 7.7724 q 0,0.8763 -0.0762,1.3335 -0.0381,0.4191 -0.3429,0.9906 -0.5334,1.0287 -2.9718,1.0287 -2.667,0 -3.1242,-1.4097 -0.2286,-0.6477 -0.2286,-1.9812 v -21.1455 q 0,-0.8763 0.0381,-1.2954 0.0762,-0.4572 0.381,-1.0287 0.5334,-1.0287 2.9718,-1.0287 2.667,0 3.1623,1.4097 0.1905,0.6477 0.1905,1.9812 v 7.7724 h 10.0965 v -7.8105 q 0,-0.8763 0.0381,-1.2954 0.0762,-0.4572 0.381,-1.0287 z"
           style="font-style:normal;font-variant:normal;font-weight:normal;font-stretch:normal;font-size:38.1px;line-height:1.25;font-family:'Fredoka One';-inkscape-font-specification:'Fredoka One';white-space:pre;fill:#ffffff;stroke:#431c53;stroke-width:2.4;stroke-miterlimit:4;stroke-dasharray:none;stroke-opacity:1"
           id="path45" />
      </g>
    </g>
  </g>
</svg>
