<?xml version="1.0" encoding="UTF-8" standalone="no"?>
<svg
   xmlns:dc="http://purl.org/dc/elements/1.1/"
   xmlns:cc="http://creativecommons.org/ns#"
   xmlns:rdf="http://www.w3.org/1999/02/22-rdf-syntax-ns#"
   xmlns:svg="http://www.w3.org/2000/svg"
   xmlns="http://www.w3.org/2000/svg"
   width="400"
   height="400"
   viewBox="0 0 105.83333 105.83334"
   version="1.1"
   id="svg8">
  <defs
     id="defs2">
    <filter
       style="color-interpolation-filters:sRGB"
       id="filter1805"
       x="-0.024925388"
       width="1.0498508"
       y="-0.025121648"
       height="1.0502433">
      <feGaussianBlur
         stdDeviation="1.0049282"
         id="feGaussianBlur1807" />
    </filter>
  </defs>
  <metadata
     id="metadata5">
    <rdf:RDF>
      <cc:Work
         rdf:about="">
        <dc:format>image/svg+xml</dc:format>
        <dc:type
           rdf:resource="http://purl.org/dc/dcmitype/StillImage" />
        <dc:title></dc:title>
      </cc:Work>
    </rdf:RDF>
  </metadata>
  <g
     id="layer1">
    <rect
       style="fill:#000000;fill-opacity:1;stroke:none;stroke-width:1.54748;stroke-linecap:round;stroke-linejoin:round;filter:url(#filter1805)"
       id="rect945"
       width="96.761894"
       height="96.005951"
       x="65.76786"
       y="46.869041"
       ry="20.858067"
       transform="matrix(1.0662913,0,0,1.0662913,-68.799213,-48.244539)" />
    <rect
       style="fill:#ffffff;fill-opacity:1;stroke:none;stroke-width:1.08445;stroke-linecap:round;stroke-linejoin:round"
       id="rect947"
       width="67.809517"
       height="67.279762"
       x="19.011906"
       y="19.276783"
       ry="14.61707" />
    <g
       id="g943"
       transform="translate(-61.232143,-41.955352)">
      <path
         style="fill:#000000;stroke-width:0.264583"
         d="m 79.003614,142.46927 c -5.83648,-1.26686 -10.83963,-6.31583 -12.08546,-12.19614 -0.57549,-2.71633 -0.57549,-67.329936 0,-70.046265 1.25924,-5.943568 6.26396,-10.948289 12.20753,-12.207523 2.71632,-0.575495 67.329936,-0.575495 70.046266,0 5.94357,1.259234 10.94829,6.263955 12.20752,12.207523 0.5755,2.716329 0.5755,67.329935 0,70.046265 -1.25923,5.94357 -6.26395,10.94829 -12.20752,12.20753 -2.62615,0.55638 -67.601146,0.54584 -70.168336,-0.0114 z M 112.6682,121.18566 c 2.98884,-0.76442 5.01854,-1.93912 7.31035,-4.23093 2.2918,-2.2918 3.46651,-4.3215 4.23092,-7.31034 0.47793,-1.8687 0.52267,-2.95374 0.52267,-12.676597 V 86.334816 l 2.78201,1.394558 c 2.599,1.302819 5.55985,2.228958 7.12596,2.228958 h 0.67537 V 84.708547 79.458761 L 134.191,79.126029 c -3.9636,-1.172819 -8.69712,-5.910636 -9.33369,-9.342176 l -0.18406,-0.992187 h -5.25717 -5.25717 l -0.0712,19.248437 c -0.0676,18.265927 -0.0967,19.299847 -0.57146,20.255557 -1.03023,2.0741 -3.62275,3.21628 -5.9111,2.60424 -2.23792,-0.59856 -3.58472,-2.10086 -3.96075,-4.4181 -0.39483,-2.43306 1.38429,-5.05897 3.85694,-5.69269 l 1.35579,-0.34748 v -5.24165 -5.241648 h -0.88372 c -1.43988,0 -4.8502,0.982081 -6.60768,1.902831 -2.146356,1.124495 -5.356266,4.334401 -6.480766,6.48077 -1.10442,2.108057 -1.90283,5.251367 -1.90283,7.491397 0,2.24003 0.79841,5.38335 1.90283,7.4914 1.1256,2.14848 4.33428,5.3562 6.484916,6.48298 3.50992,1.83895 7.56304,2.33327 11.29831,1.37795 z"
         id="path847" />
      <g
         id="g937"
         transform="translate(19.654762,-100.16369)">
        <path
           id="path921"
           style="fill:#f5054e;fill-opacity:1;stroke-width:0.999999"
           d="m 397.73438,642.85742 c 2.42318,11.24111 16.05029,25.92692 29.28515,32.4375 -10.85683,-7.5895 -20.5358,-19.3942 -22.25976,-28.6875 l -0.69727,-3.75 z m 39.4082,38.05078 v 17.82227 19.8418 h -2.55274 c -5.91915,0 -17.10864,-3.49975 -26.93164,-8.42383 l -10.51562,-5.27149 v 40.1875 c 0,44.87437 -0.48108,49.01402 -7.19141,61.82227 -4.25008,8.11226 -16.38187,20.24406 -24.49414,24.49414 -13.23118,6.93188 -29.11449,8.83686 -43.11133,5.16992 -4.16478,-1.0911 -7.86503,-2.42764 -11.32422,-4.13086 5.53323,3.94764 11.31774,6.54308 18.4668,8.41602 13.99684,3.66693 29.88015,1.76196 43.11133,-5.16992 8.11226,-4.25008 20.24406,-16.38188 24.49414,-24.49414 6.71032,-12.80826 7.19141,-16.9479 7.19141,-61.82227 v -40.1875 l 10.51562,5.27148 c 9.82299,4.92409 21.01249,8.42383 26.93164,8.42383 h 2.55274 v -19.8418 -19.84179 l -4.25,-1.25781 c -0.95415,-0.28233 -1.91959,-0.62093 -2.89258,-1.00782 z m -96.19727,41.94922 c -1.03094,0 -2.33044,0.13347 -3.80273,0.37305 v 15.15234 19.81055 l -5.12305,1.31445 c -9.34545,2.39516 -16.07039,12.31985 -14.57812,21.51563 1.30354,8.03292 5.70262,13.46516 12.94726,16.05664 -3.05414,-2.91504 -5.00734,-6.85795 -5.80469,-11.77149 -1.49227,-9.19578 5.23268,-19.12046 14.57813,-21.51562 l 5.12305,-1.31445 v -19.81055 -19.81055 z"
           transform="scale(0.26458333)" />
        <path
           id="path923"
           style="fill:#03f4ef;fill-opacity:1;stroke-width:0.999999"
           d="m 351.4668,624.28516 -0.26953,72.75 c -0.2555,69.03654 -0.36587,72.94447 -2.16016,76.55664 -3.89378,7.83908 -13.69097,12.15502 -22.33984,9.84179 -3.86185,-1.03288 -7.01221,-2.78613 -9.44141,-5.21093 -0.0112,0.93513 0.0348,1.87201 0.18555,2.80078 1.42121,8.75807 6.51242,14.43503 14.9707,16.69726 8.64888,2.31323 18.44606,-2.00271 22.33984,-9.84179 1.7943,-3.61217 1.90466,-7.5201 2.16016,-76.55664 l 0.26953,-72.75 h 19.86914 19.38281 c -2.30751,-3.62957 -3.92014,-7.24285 -4.53125,-10.53711 l -0.69726,-3.75 h -19.86914 z m 45.64648,15.32617 0.50391,2.71094 c 2.32797,12.54932 19.15172,29.71873 33.81054,34.83398 v -12.55469 l -4.25,-1.25781 c -10.81229,-3.1993 -23.13691,-13.41747 -30.06445,-23.73242 z m -69.02539,64.67383 c -5.44207,0 -18.33022,3.7114 -24.97266,7.1914 -8.11223,4.25004 -20.24601,16.38188 -24.49609,24.49414 -6.95138,13.26837 -8.82319,28.61019 -5.21484,42.71875 1.45249,5.67918 3.29741,10.44201 5.87304,14.875 -0.0521,-0.19763 -0.10708,-0.38801 -0.1582,-0.58789 -3.60835,-14.10856 -1.73653,-29.45038 5.21484,-42.71875 4.25009,-8.11226 16.38387,-20.2441 24.4961,-24.49414 5.80863,-3.04316 16.39266,-6.26296 22.59765,-7.02344 v -14.45507 z"
           transform="scale(0.26458333)" />
      </g>
    </g>
  </g>
</svg>
