<?xml version="1.0" encoding="UTF-8" standalone="no"?>
<svg
   xmlns:dc="http://purl.org/dc/elements/1.1/"
   xmlns:cc="http://creativecommons.org/ns#"
   xmlns:rdf="http://www.w3.org/1999/02/22-rdf-syntax-ns#"
   xmlns:svg="http://www.w3.org/2000/svg"
   xmlns="http://www.w3.org/2000/svg"
   width="340"
   height="340"
   viewBox="0 0 89.958331 89.958336"
   version="1.1"
   id="svg8">
  <defs
     id="defs2">
    <filter
       style="color-interpolation-filters:sRGB"
       id="filter1050"
       x="-0.04947016"
       width="1.0989403"
       y="-0.060522269"
       height="1.1210445">
      <feGaussianBlur
         stdDeviation="1.2938975"
         id="feGaussianBlur1052" />
    </filter>
    <filter
       style="color-interpolation-filters:sRGB"
       id="filter1255"
       x="-0.031667495"
       width="1.063335"
       y="-0.031672312"
       height="1.0633446">
      <feGaussianBlur
         stdDeviation="1.12051"
         id="feGaussianBlur1257" />
    </filter>
  </defs>
  <metadata
     id="metadata5">
    <rdf:RDF>
      <cc:Work
         rdf:about="">
        <dc:format>image/svg+xml</dc:format>
        <dc:type
           rdf:resource="http://purl.org/dc/dcmitype/StillImage" />
        <dc:title></dc:title>
      </cc:Work>
    </rdf:RDF>
  </metadata>
  <g
     id="layer1">
    <path
       id="path849"
       style="fill:#000000;stroke-width:0.087541;filter:url(#filter1255)"
       d="m 44.979079,2.525319 c -14.13435,0 -28.26872,0.0319 -28.90115,0.09653 -3.56746,0.364005 -6.62827,1.811767 -9.14124,4.32359 -2.51877,2.517599 -3.95717,5.559407 -4.322539,9.140185 -0.124976,1.225491 -0.128095,56.801647 -0.0031,57.921057 0.580379,5.20088 3.547859,9.50197 8.184929,11.86284 1.39044,0.70791 3.35255,1.28394 5.03182,1.47688 v -5.4e-4 c 0.95723,0.11039 57.18825,0.11872 58.17126,0.009 1.81436,-0.20248 3.72013,-0.75061 5.16329,-1.48536 4.63707,-2.36087 7.60455,-6.66195 8.18493,-11.86283 0.12498,-1.11942 0.12187,-56.69557 -0.003,-57.921062 -0.36536,-3.580778 -1.80431,-6.622585 -4.32306,-9.140184 -2.51297,-2.511824 -5.57326,-3.959586 -9.14072,-4.323591 -0.63244,-0.06452 -14.7668,-0.09653 -28.90116,-0.09653 z"
       transform="matrix(1.0088992,0,0,1.0088992,-0.40027684,-0.40027683)" />
    <g
       id="g1057"
       transform="translate(-97.139891,-82.013199)">
      <path
         style="fill:#2995db;fill-opacity:1;stroke-width:0.0853369"
         d="m 113.70185,168.29271 c -1.63699,-0.1881 -3.54979,-0.74945 -4.90522,-1.43954 -4.52031,-2.30143 -7.41312,-6.49405 -7.97888,-11.56399 -0.12177,-1.09122 -0.11883,-55.26801 0.003,-56.462649 0.35617,-3.49062 1.75862,-6.45607 4.21397,-8.910281 2.4497,-2.448575 5.43316,-3.85964 8.91079,-4.214478 1.23303,-0.125811 55.11391,-0.125811 56.34694,0 3.47763,0.354838 6.46109,1.765903 8.91079,4.214478 2.45534,2.454211 3.8578,5.419661 4.21396,8.910281 0.1219,1.194639 0.12484,55.371429 0.003,56.462649 -0.56576,5.06994 -3.45857,9.26256 -7.97888,11.56399 -1.40683,0.71626 -3.26454,1.25074 -5.03322,1.44812 -0.95826,0.10693 -55.77325,0.0986 -56.70638,-0.009 z m 20.65963,-17.65499 c 5.0166,-0.23457 9.39303,-1.31195 13.5178,-3.32776 3.28468,-1.60526 5.96763,-3.52953 8.62192,-6.18381 3.36623,-3.36624 5.94572,-7.31787 7.74611,-11.86661 1.56117,-3.94435 2.32109,-7.75632 2.41343,-12.10633 l 0.0415,-1.95313 0.40228,-0.30338 c 1.81263,-1.36701 3.8934,-3.5172 5.11351,-5.28412 0.17016,-0.24642 0.29026,-0.46717 0.26688,-0.49055 -0.0234,-0.0234 -0.28897,0.0586 -0.59022,0.18219 -0.83891,0.34415 -2.16813,0.78749 -3.04673,1.01619 -0.79009,0.20565 -2.75832,0.57025 -2.80835,0.52022 -0.0145,-0.0145 0.31126,-0.27848 0.7239,-0.58663 1.72997,-1.29186 3.26907,-3.31508 4.00089,-5.25934 0.1129,-0.29994 0.18734,-0.56327 0.16542,-0.58518 -0.0219,-0.0219 -0.51304,0.21036 -1.0914,0.51616 -1.67086,0.88345 -3.62763,1.62015 -5.50505,2.07259 l -0.8872,0.2138 -0.64934,-0.60641 c -1.55093,-1.4484 -3.58648,-2.48232 -5.82913,-2.96079 -1.02166,-0.21798 -3.50119,-0.21798 -4.52285,0 -2.45164,0.52306 -4.44115,1.59004 -6.14793,3.29715 -1.55434,1.55465 -2.61487,3.40929 -3.17403,5.55074 -0.2216,0.84868 -0.26207,1.17969 -0.2993,2.44799 -0.0391,1.33224 0.0482,2.56672 0.21173,2.99278 0.0452,0.11777 -0.0563,0.12621 -0.8806,0.0732 -1.78611,-0.11483 -3.54087,-0.41275 -5.83855,-0.99127 -6.5035,-1.63748 -12.72411,-5.50819 -17.14613,-10.669 -0.30067,-0.35091 -0.57697,-0.65021 -0.61399,-0.66513 -0.037,-0.0149 -0.19777,0.2347 -0.35721,0.55469 -1.24831,2.50536 -1.61357,5.42585 -1.0013,8.00612 0.68925,2.9047 2.13763,5.12127 4.61296,7.05958 l 0.29708,0.23262 -0.51202,-0.0472 c -1.45999,-0.13471 -2.92357,-0.53168 -4.04809,-1.09798 -0.32918,-0.16577 -0.64242,-0.3014 -0.69607,-0.3014 -0.12034,0 -0.0446,1.15456 0.14491,2.208 0.61665,3.42852 2.78687,6.50728 5.84661,8.29426 0.69848,0.40793 2.04703,0.95424 2.85898,1.1582 0.55135,0.13849 0.5704,0.15117 0.33014,0.21963 -0.47438,0.13518 -2.04305,0.31974 -2.72975,0.32118 -0.37548,7.7e-4 -1.02181,-0.0402 -1.43628,-0.091 -0.41448,-0.0508 -0.77361,-0.0724 -0.79806,-0.048 -0.0737,0.0737 0.2125,0.84144 0.59692,1.60149 1.91617,3.78843 5.45517,6.19132 9.72752,6.60474 0.74196,0.0718 0.73595,0.0794 -0.9218,1.1728 -2.53545,1.67226 -5.23461,2.78652 -8.28344,3.41956 -1.90338,0.3952 -2.43239,0.44149 -5.04621,0.44149 -1.37053,0 -2.46497,0.0255 -2.4321,0.0566 0.18346,0.17387 1.68488,1.02265 2.83321,1.60166 3.45781,1.74351 7.17481,2.87936 11.05113,3.37702 0.93551,0.1201 1.60125,0.16979 3.79749,0.28344 0.11734,0.006 1.00422,-0.0259 1.97085,-0.0711 z"
         id="path847" />
      <path
         id="path854"
         style="fill:#000000;stroke-width:0.0927111;filter:url(#filter1050)"
         d="m 155.66648,101.44085 c -0.95093,0 -1.90235,0.059 -2.45733,0.1774 -2.66348,0.56826 -4.82493,1.7278 -6.6792,3.58243 -1.68866,1.68899 -2.84077,3.70369 -3.44824,6.0302 -0.24074,0.92201 -0.28462,1.28154 -0.32506,2.65943 -0.0425,1.44737 0.0526,2.78888 0.23018,3.25174 0.0491,0.12787 -0.0611,0.13675 -0.95665,0.0793 -1.94046,-0.12474 -3.84668,-0.4483 -6.34292,-1.0768 -7.06548,-1.77898 -13.82374,-5.98429 -18.62788,-11.59106 -0.32664,-0.38123 -0.62673,-0.70636 -0.66697,-0.72254 -0.0908,-0.0366 -0.62082,1.0162 -0.94879,1.88524 -1.1036,2.92437 -1.12263,5.97682 -0.0562,8.99168 0.84764,2.39618 2.2887,4.33062 4.5402,6.09364 l 0.32282,0.25266 -0.55637,-0.0516 c -1.58615,-0.14644 -3.17591,-0.5773 -4.39759,-1.19253 -0.35763,-0.1801 -0.69794,-0.32788 -0.75623,-0.32788 -0.13075,0 -0.0486,1.25448 0.15718,2.39894 0.88518,4.9214 4.7131,9.07755 9.45824,10.26948 0.59899,0.15049 0.61976,0.16419 0.35874,0.2386 -0.51536,0.14687 -2.21994,0.34755 -2.96598,0.34864 -0.40791,8.8e-4 -1.10988,-0.0436 -1.56018,-0.0988 -0.4503,-0.0554 -0.84082,-0.0788 -0.86739,-0.0523 -0.15081,0.15082 0.73803,2.05974 1.4771,3.17258 2.1759,3.27637 5.69509,5.3514 9.73949,5.74276 0.80608,0.078 0.79998,0.0866 -1.00102,1.27441 -2.75454,1.81676 -5.68724,3.02717 -8.99954,3.71491 -2.06784,0.42934 -2.64257,0.47946 -5.48225,0.47946 -1.48896,0 -2.67775,0.028 -2.64204,0.0616 0.19931,0.18889 1.83014,1.11081 3.0777,1.73984 4.53685,2.2876 9.5618,3.63227 14.55591,3.89457 0.73938,0.0388 1.44843,0.0761 1.57589,0.0826 0.12748,0.006 1.09112,-0.0284 2.14126,-0.0774 9.58718,-0.44828 17.61771,-3.89832 24.05287,-10.33347 3.65712,-3.65712 6.45971,-7.95005 8.41567,-12.89187 1.69607,-4.28518 2.52152,-8.42645 2.62183,-13.15236 l 0.0449,-2.12216 0.43735,-0.32955 c 1.96926,-1.48514 4.2297,-3.82091 5.55524,-5.74052 0.18487,-0.26771 0.3151,-0.50792 0.28969,-0.53334 -0.0254,-0.0254 -0.31386,0.0639 -0.64114,0.19818 -0.91141,0.37389 -2.3556,0.85528 -3.31012,1.10375 -0.85837,0.22343 -2.9964,0.61967 -3.05076,0.56535 -0.0158,-0.0158 0.33824,-0.30243 0.78655,-0.63721 1.87947,-1.4035 3.55145,-3.60186 4.3465,-5.71412 0.12265,-0.32586 0.20346,-0.61173 0.17965,-0.63552 -0.0238,-0.0238 -0.55738,0.22862 -1.1857,0.56085 -1.81526,0.95978 -3.94115,1.76031 -5.9808,2.25185 l -0.96396,0.23187 -0.70514,-0.65855 c -1.68495,-1.57356 -3.89636,-2.69712 -6.33281,-3.21694 -0.55497,-0.1184 -1.50584,-0.1774 -2.45677,-0.1774 z" />
      <path
         id="path860"
         style="fill:#ffffff;stroke-width:0.0853369"
         d="m 154.70659,103.4814 c -0.8753,0 -1.75105,0.0543 -2.26188,0.16329 -2.45164,0.52306 -4.44116,1.59037 -6.14794,3.29748 -1.55435,1.55465 -2.61481,3.40911 -3.17397,5.55056 -0.22159,0.84868 -0.26198,1.17962 -0.2992,2.44791 -0.0391,1.33225 0.0484,2.56705 0.21187,2.9931 0.0452,0.1177 -0.0563,0.12587 -0.88057,0.0729 -1.78611,-0.11483 -3.54072,-0.41264 -5.8384,-0.99116 -6.5035,-1.63748 -12.72422,-5.5083 -17.14624,-10.66911 -0.30067,-0.35091 -0.5769,-0.65018 -0.61392,-0.66508 -0.0836,-0.0337 -0.57145,0.93538 -0.87333,1.7353 -1.01583,2.69176 -1.03333,5.50142 -0.0517,8.27649 0.7802,2.20559 2.10666,3.98616 4.17907,5.60896 l 0.29714,0.23255 -0.51212,-0.0475 c -1.45998,-0.13478 -2.92329,-0.53138 -4.04781,-1.09768 -0.32918,-0.16577 -0.64242,-0.30179 -0.69608,-0.30179 -0.12034,0 -0.0448,1.15469 0.14469,2.20813 0.81477,4.52995 4.33822,8.35553 8.70593,9.45265 0.55135,0.13853 0.57047,0.15113 0.33021,0.21963 -0.47437,0.13518 -2.04337,0.31991 -2.73006,0.32091 -0.37548,8e-4 -1.02161,-0.0402 -1.43609,-0.0909 -0.41448,-0.051 -0.77394,-0.0726 -0.7984,-0.0481 -0.13882,0.13882 0.67932,1.89591 1.3596,2.92024 2.00285,3.01577 5.24212,4.92575 8.96483,5.28598 0.74196,0.0718 0.73636,0.0797 -0.92139,1.17305 -2.53546,1.67226 -5.2349,2.78639 -8.28373,3.41943 -1.90338,0.39519 -2.43239,0.44132 -5.0462,0.44132 -1.37053,0 -2.46477,0.0257 -2.4319,0.0568 0.18346,0.17387 1.68457,1.02245 2.83291,1.60145 4.17599,2.10565 8.80126,3.34337 13.39814,3.5848 0.68056,0.0357 1.33322,0.07 1.45056,0.076 0.11734,0.006 1.00431,-0.0261 1.97094,-0.0713 8.82462,-0.41263 16.21642,-3.58825 22.13973,-9.51156 3.36624,-3.36624 5.94591,-7.31772 7.7463,-11.86646 1.56117,-3.94435 2.32096,-7.75623 2.41329,-12.10624 l 0.0413,-1.95337 0.40256,-0.30334 c 1.81263,-1.36701 3.89327,-3.51699 5.11338,-5.28392 0.17016,-0.24642 0.29003,-0.46752 0.26665,-0.49092 -0.0234,-0.0234 -0.2889,0.0588 -0.59014,0.18242 -0.83891,0.34415 -2.16824,0.78725 -3.04684,1.01596 -0.79009,0.20565 -2.75807,0.57038 -2.8081,0.52038 -0.0145,-0.0145 0.31134,-0.27838 0.72398,-0.58653 1.72997,-1.29186 3.26898,-3.31537 4.0008,-5.25963 0.11289,-0.29994 0.18727,-0.56307 0.16536,-0.58497 -0.0219,-0.0219 -0.51305,0.21044 -1.09141,0.51624 -1.67086,0.88345 -3.62767,1.6203 -5.50509,2.07274 l -0.88728,0.21343 -0.64906,-0.60617 c -1.55093,-1.4484 -3.58645,-2.48259 -5.8291,-2.96106 -0.51083,-0.10899 -1.38606,-0.16329 -2.26136,-0.16329 z" />
    </g>
  </g>
</svg>
